<?xml version="1.0" encoding="UTF-8" standalone="no"?>
<!DOCTYPE svg PUBLIC "-//W3C//DTD SVG 1.1//EN" "http://www.w3.org/Graphics/SVG/1.1/DTD/svg11.dtd">
<svg version="1.1" xmlns="http://www.w3.org/2000/svg" xmlns:xlink="http://www.w3.org/1999/xlink" preserveAspectRatio="xMidYMid meet" viewBox="0 0 640 640" width="640" height="640"><defs><path d="M346.24 1.06L359.15 2.37L371.91 4.19L384.49 6.5L396.9 9.3L409.12 12.57L421.14 16.31L432.96 20.51L444.56 25.15L455.93 30.22L467.06 35.72L477.94 41.63L488.56 47.94L498.91 54.65L508.99 61.74L518.77 69.2L528.25 77.03L537.42 85.21L546.27 93.73L554.79 102.58L562.97 111.75L570.8 121.23L578.26 131.01L585.35 141.09L592.06 151.44L598.37 162.06L604.28 172.94L609.78 184.07L614.85 195.44L619.49 207.04L623.69 218.86L627.43 230.88L630.7 243.1L633.5 255.51L635.81 268.09L637.63 280.85L638.94 293.76L639.73 306.81L640 320L639.73 333.19L638.94 346.24L637.63 359.15L635.81 371.91L633.5 384.49L630.7 396.9L627.43 409.12L623.69 421.14L619.49 432.96L614.85 444.56L609.78 455.93L604.28 467.06L598.37 477.94L592.06 488.56L585.35 498.91L578.26 508.99L570.8 518.77L562.97 528.25L554.79 537.42L546.27 546.27L537.42 554.79L528.25 562.97L518.77 570.8L508.99 578.26L498.91 585.35L488.56 592.06L477.94 598.37L467.06 604.28L455.93 609.78L444.56 614.85L432.96 619.49L421.14 623.69L409.12 627.43L396.9 630.7L384.49 633.5L371.91 635.81L359.15 637.63L346.24 638.94L333.19 639.73L320 640L306.81 639.73L293.76 638.94L280.85 637.63L268.09 635.81L255.51 633.5L243.1 630.7L230.88 627.43L218.86 623.69L207.04 619.49L195.44 614.85L184.07 609.78L172.94 604.28L162.06 598.37L151.44 592.06L141.09 585.35L131.01 578.26L121.23 570.8L111.75 562.97L102.58 554.79L93.73 546.27L85.21 537.42L77.03 528.25L69.2 518.77L61.74 508.99L54.65 498.91L47.94 488.56L41.63 477.94L35.72 467.06L30.22 455.93L25.15 444.56L20.51 432.96L16.31 421.14L12.57 409.12L9.3 396.9L6.5 384.49L4.19 371.91L2.37 359.15L1.06 346.24L0.27 333.19L0 320L0.27 306.81L1.06 293.76L2.37 280.85L4.19 268.09L6.5 255.51L9.3 243.1L12.57 230.88L16.31 218.86L20.51 207.04L25.15 195.44L30.22 184.07L35.72 172.94L41.63 162.06L47.94 151.44L54.65 141.09L61.74 131.01L69.2 121.23L77.03 111.75L85.21 102.58L93.73 93.73L102.58 85.21L111.75 77.03L121.23 69.2L131.01 61.74L141.09 54.65L151.44 47.94L162.06 41.63L172.94 35.72L184.07 30.22L195.44 25.15L207.04 20.51L218.86 16.31L230.88 12.57L243.1 9.3L255.51 6.5L268.09 4.19L280.85 2.37L293.76 1.06L306.81 0.27L320 0L333.19 0.27L346.24 1.06ZM364.25 321.81L365.74 321.82L367.22 321.82L368.7 321.82L370.18 321.82L371.66 321.82L373.15 321.83L374.63 321.83L376.11 321.83L377.59 321.83L379.07 321.83L380.56 321.83L382.04 321.84L383.52 321.84L385 321.84L386.48 321.83L387.97 321.83L389.45 321.83L390.93 321.83L392.41 321.82L393.89 321.82L395.38 321.81L396.86 321.81L398.34 321.8L399.82 321.79L401.3 321.78L402.79 321.77L404.27 321.75L405.75 321.74L406.01 319.95L406.27 318.17L406.53 316.38L406.79 314.59L407.04 312.81L407.29 311.02L407.54 309.23L407.79 307.44L408.04 305.65L408.28 303.85L408.52 302.06L408.75 300.27L408.99 298.48L409.22 296.68L409.44 294.89L409.67 293.09L409.89 291.29L410.11 289.5L410.32 287.7L410.53 285.9L410.74 284.1L410.94 282.31L411.15 280.51L411.34 278.71L411.53 276.9L411.72 275.1L411.91 273.3L412.09 271.5L412.27 269.7L412.44 267.89L412.61 266.09L412.77 264.29L412.93 262.48L413.09 260.68L413.24 258.87L413.38 257.07L413.52 255.26L413.66 253.45L413.79 251.65L413.92 249.84L412.24 249.83L410.57 249.82L408.89 249.82L407.21 249.81L405.54 249.81L403.86 249.8L402.19 249.8L400.51 249.8L398.83 249.79L397.16 249.79L395.48 249.79L393.81 249.79L392.13 249.79L390.45 249.79L388.78 249.79L387.1 249.79L385.42 249.79L383.75 249.79L382.07 249.79L378.72 249.79L377.04 249.79L375.37 249.79L373.69 249.79L372.02 249.79L370.34 249.78L368.66 249.78L366.99 249.78L365.31 249.78L363.64 249.78L361.96 249.78L360.28 249.77L358.61 249.77L356.93 249.77L355.26 249.76L353.58 249.76L351.91 249.75L350.23 249.75L348.55 249.74L346.88 249.73L346.88 248.48L346.88 247.24L346.88 245.99L346.88 244.74L346.87 243.49L346.87 242.24L346.87 240.99L346.87 239.74L346.87 238.49L346.86 235.99L346.86 234.74L346.86 233.49L346.86 232.24L346.86 231L346.86 229.75L346.85 228.5L346.85 227.25L346.85 226L346.85 224.75L346.85 223.5L346.85 222.25L346.85 221L346.86 219.75L346.86 218.5L346.86 217.26L346.86 216.01L346.87 214.76L346.87 213.51L346.88 212.26L346.88 211.01L346.89 209.76L346.9 208.51L346.91 207.26L346.92 206.01L346.93 204.76L346.94 203.51L346.95 202.27L346.97 201.02L346.98 199.77L347.13 199.05L347.31 198.34L347.51 197.64L347.75 196.95L348.01 196.28L348.3 195.61L348.61 194.95L348.95 194.31L349.31 193.68L349.7 193.06L350.11 192.46L350.54 191.87L351 191.3L351.47 190.74L351.96 190.2L352.47 189.68L353 189.17L353.55 188.68L354.11 188.2L354.69 187.75L355.28 187.32L355.89 186.9L356.51 186.51L357.14 186.13L357.78 185.78L358.44 185.45L359.1 185.14L359.78 184.86L360.46 184.6L361.15 184.36L361.85 184.14L362.55 183.96L363.26 183.79L363.97 183.66L364.69 183.55L365.41 183.47L366.13 183.41L366.85 183.39L367.57 183.39L368.29 183.42L414.02 183.42L414.02 181.55L414.03 179.68L414.04 177.81L414.04 175.94L414.05 174.07L414.06 172.21L414.06 170.34L414.07 168.47L414.07 166.6L414.08 164.74L414.08 162.87L414.08 161L414.09 159.14L414.09 157.27L414.09 155.4L414.09 153.54L414.09 151.67L414.09 149.81L414.1 147.94L414.1 146.07L414.1 144.21L414.1 142.34L414.09 140.48L414.09 138.61L414.09 136.74L414.09 134.88L414.09 133.01L414.08 131.14L414.08 129.28L414.08 127.41L414.07 125.54L414.07 123.68L414.07 121.81L414.06 119.94L414.06 118.07L414.05 116.2L414.04 114.34L414.04 112.47L414.03 110.6L414.02 108.73L412.25 108.73L410.49 108.73L408.72 108.73L406.95 108.73L405.18 108.72L403.41 108.72L401.64 108.72L399.87 108.72L398.1 108.72L394.57 108.71L392.8 108.71L391.03 108.71L389.26 108.71L387.49 108.71L385.72 108.7L383.95 108.7L382.18 108.7L380.42 108.7L378.65 108.7L376.88 108.7L375.11 108.7L373.34 108.7L371.57 108.71L369.8 108.71L368.03 108.71L366.26 108.71L364.49 108.72L362.72 108.72L360.96 108.73L359.19 108.73L357.42 108.74L355.65 108.75L353.88 108.76L352.11 108.77L350.34 108.78L348.57 108.79L346.8 108.8L345.03 108.82L343.26 108.83L341.59 108.89L339.9 108.96L338.22 109.05L336.53 109.17L334.84 109.3L333.15 109.45L331.46 109.63L329.77 109.82L328.08 110.04L326.4 110.28L324.72 110.54L323.04 110.83L321.36 111.14L319.69 111.48L318.03 111.84L316.38 112.23L314.73 112.64L313.09 113.08L311.46 113.55L309.84 114.05L308.23 114.57L306.63 115.12L305.04 115.71L303.47 116.32L301.91 116.96L300.36 117.64L298.83 118.35L297.32 119.08L295.82 119.86L294.34 120.66L292.88 121.5L291.44 122.37L290.01 123.28L288.61 124.23L287.23 125.21L285.87 126.22L284.54 127.27L283.22 128.37L281.94 129.49L280.67 130.66L279.66 131.63L278.66 132.61L277.69 133.62L276.75 134.65L275.83 135.69L274.94 136.76L274.07 137.84L273.22 138.95L272.41 140.06L271.61 141.2L270.84 142.35L270.09 143.52L269.37 144.71L268.67 145.9L268 147.12L267.35 148.34L266.72 149.58L266.11 150.83L265.53 152.09L264.97 153.37L264.44 154.65L263.92 155.95L263.43 157.26L262.97 158.57L262.52 159.89L262.1 161.23L261.7 162.56L261.32 163.91L260.96 165.26L260.62 166.62L260.31 167.99L260.02 169.36L259.75 170.73L259.5 172.11L259.27 173.49L259.06 174.87L258.87 176.26L258.7 177.64L258.56 179.03L258.43 180.42L258.37 182.16L258.32 183.9L258.27 185.64L258.23 187.38L258.19 189.12L258.16 190.86L258.13 192.6L258.11 194.34L258.09 196.08L258.07 197.82L258.06 199.56L258.05 201.3L258.05 203.04L258.04 204.78L258.04 206.52L258.04 208.27L258.05 210.01L258.05 211.75L258.06 213.49L258.07 215.23L258.07 216.98L258.08 218.72L258.09 220.46L258.1 222.2L258.11 223.94L258.12 225.68L258.12 227.43L258.13 229.17L258.13 230.91L258.14 232.65L258.14 234.39L258.14 236.13L258.13 237.87L258.13 239.61L258.12 241.35L258.1 243.09L258.09 244.83L258.07 246.57L258.04 248.31L258.01 250.05L256.94 250.05L255.87 250.06L254.8 250.06L253.73 250.07L252.66 250.07L251.58 250.07L250.51 250.08L249.44 250.08L248.36 250.08L247.29 250.08L246.22 250.08L245.14 250.07L244.07 250.07L242.99 250.07L241.92 250.07L240.85 250.07L239.77 250.06L238.7 250.06L237.62 250.06L236.55 250.06L235.47 250.06L234.4 250.05L233.32 250.05L232.25 250.05L231.17 250.05L230.1 250.05L229.03 250.05L227.95 250.05L226.88 250.06L225.8 250.06L224.73 250.06L223.66 250.07L222.58 250.07L221.51 250.08L220.44 250.09L219.37 250.1L218.29 250.11L217.22 250.12L216.15 250.13L215.08 250.15L215.08 251.93L215.08 253.72L215.08 255.51L215.08 257.29L215.09 259.08L215.09 260.86L215.09 262.65L215.09 264.44L215.09 266.23L215.1 268.01L215.1 269.8L215.1 271.59L215.1 273.38L215.11 275.17L215.11 276.96L215.11 278.75L215.11 280.54L215.12 282.33L215.12 284.12L215.12 285.91L215.12 287.7L215.12 289.49L215.12 291.28L215.13 293.07L215.13 294.86L215.13 296.65L215.13 298.44L215.13 300.23L215.13 302.02L215.12 303.82L215.12 305.61L215.12 307.4L215.12 309.19L215.11 310.98L215.11 312.78L215.11 314.57L215.1 316.36L215.1 318.15L215.09 319.95L215.08 321.74L216.15 321.75L217.22 321.77L218.29 321.78L219.37 321.79L220.44 321.8L221.51 321.81L222.58 321.81L223.66 321.82L224.73 321.82L225.8 321.83L226.88 321.83L227.95 321.83L229.03 321.83L230.1 321.84L231.17 321.84L232.25 321.84L233.32 321.83L234.4 321.83L235.47 321.83L236.55 321.83L237.62 321.83L238.7 321.83L239.77 321.82L240.85 321.82L241.92 321.82L242.99 321.82L244.07 321.82L245.14 321.81L246.22 321.81L247.29 321.81L248.36 321.81L249.44 321.81L250.51 321.81L251.58 321.81L252.66 321.82L253.73 321.82L254.8 321.82L255.87 321.83L256.94 321.84L258.01 321.84L258.04 327.17L258.06 332.5L258.07 337.84L258.08 343.17L258.1 348.5L258.1 353.83L258.11 359.16L258.12 364.49L258.12 369.82L258.12 375.15L258.12 380.48L258.12 385.81L258.12 391.14L258.12 396.47L258.11 401.8L258.11 407.13L258.1 412.46L258.1 417.79L258.1 423.12L258.09 428.45L258.09 433.79L258.09 439.12L258.08 444.45L258.08 449.78L258.08 455.11L258.08 460.44L258.08 465.77L258.09 471.1L258.09 476.43L258.1 481.76L258.11 487.09L258.12 492.42L258.14 497.75L258.16 503.08L258.18 508.41L258.2 513.74L258.23 519.07L258.26 524.4L258.29 529.73L258.33 535.06L260.53 535.05L262.73 535.03L264.94 535.02L267.14 535.01L269.34 535L271.54 534.99L273.74 534.99L275.94 534.98L278.15 534.98L280.35 534.97L282.55 534.97L284.75 534.97L286.95 534.97L289.15 534.97L291.35 534.96L293.55 534.97L295.75 534.97L297.95 534.97L300.15 534.97L302.35 534.97L304.55 534.97L306.75 534.97L308.94 534.98L311.14 534.98L313.34 534.98L315.54 534.98L317.74 534.99L319.94 534.99L322.15 534.99L324.35 534.99L326.55 534.99L328.75 534.99L330.95 534.99L333.15 534.99L335.35 534.98L337.55 534.98L339.76 534.98L341.96 534.97L344.16 534.97L346.37 534.96L346.38 529.63L346.39 524.3L346.4 518.97L346.41 513.64L346.42 508.31L346.43 502.98L346.43 497.65L346.44 492.32L346.44 487L346.44 481.67L346.44 476.34L346.44 471.01L346.44 465.69L346.44 460.36L346.44 455.03L346.43 449.7L346.43 444.38L346.43 439.05L346.42 433.72L346.41 423.07L346.41 417.74L346.41 412.42L346.4 407.09L346.4 401.77L346.4 396.44L346.4 391.11L346.4 385.78L346.39 380.46L346.4 375.13L346.4 369.8L346.4 364.47L346.4 359.15L346.41 353.82L346.41 348.49L346.42 343.16L346.43 337.83L346.44 332.5L346.46 327.17L346.47 321.84L347.95 321.84L349.43 321.83L350.92 321.82L352.4 321.82L353.88 321.82L355.36 321.81L356.84 321.81L358.33 321.81L359.81 321.81L361.29 321.81L362.77 321.81L364.25 321.81Z" id="a2HG3nYZHZ"></path></defs><g><g><g><use xlink:href="#a2HG3nYZHZ" opacity="1" fill="#ffffff" fill-opacity="1"></use><g><use xlink:href="#a2HG3nYZHZ" opacity="1" fill-opacity="0" stroke="#000000" stroke-width="1" stroke-opacity="0"></use></g></g></g></g></svg>