<?xml version="1.0" encoding="iso-8859-1"?>
<svg version="1.1" xmlns="http://www.w3.org/2000/svg" xmlns:xlink="http://www.w3.org/1999/xlink" preserveAspectRatio="xMidYMid meet" viewBox="0 0 640 640" width="640" height="640">
	<defs>
		<path d="M409.64 159.05L412.72 159.36L415.76 159.79L418.76 160.35L421.72 161.02L424.64 161.8L427.5 162.69L430.32 163.7L433.09 164.81L435.81 166.02L438.46 167.33L441.06 168.75L443.6 170.26L446.07 171.86L448.47 173.55L450.81 175.34L453.08 177.21L455.27 179.16L457.38 181.2L459.42 183.31L461.37 185.5L463.24 187.77L465.02 190.1L466.72 192.51L468.32 194.98L469.83 197.52L471.24 200.12L472.56 202.77L473.77 205.49L474.88 208.25L475.88 211.07L476.78 213.94L477.56 216.86L478.23 219.82L478.78 222.82L479.22 225.86L479.53 228.94L479.72 232.05L479.79 235.2L479.79 405.09L479.72 408.24L479.53 411.35L479.22 414.43L478.78 417.47L478.23 420.47L477.56 423.43L476.78 426.35L475.88 429.22L474.88 432.04L473.77 434.81L472.56 437.52L471.24 440.18L469.83 442.77L468.32 445.31L466.72 447.78L465.02 450.19L463.24 452.52L461.37 454.79L459.42 456.98L457.38 459.09L455.27 461.13L453.08 463.08L450.81 464.95L448.47 466.74L446.07 468.43L443.6 470.04L441.06 471.54L438.46 472.96L435.81 474.27L433.09 475.49L430.32 476.59L427.5 477.6L424.64 478.49L421.72 479.27L418.76 479.94L415.76 480.5L412.72 480.93L409.64 481.25L406.53 481.44L403.38 481.5L235.03 481.5L231.88 481.44L228.77 481.25L225.69 480.93L222.65 480.5L219.65 479.94L216.69 479.27L213.77 478.49L210.91 477.6L208.09 476.59L205.32 475.49L202.6 474.27L199.95 472.96L197.35 471.54L194.81 470.04L192.34 468.43L189.94 466.74L187.6 464.95L185.33 463.08L183.14 461.13L181.03 459.09L178.99 456.98L177.04 454.79L175.17 452.52L173.39 450.19L171.69 447.78L170.09 445.31L168.58 442.77L167.17 440.18L165.85 437.52L164.64 434.81L163.53 432.04L162.53 429.22L161.63 426.35L160.85 423.43L160.18 420.47L159.63 417.47L159.19 414.43L158.88 411.35L158.69 408.24L158.62 405.09L158.62 235.2L158.69 232.05L158.88 228.94L159.19 225.86L159.63 222.82L160.18 219.82L160.85 216.86L161.63 213.94L162.53 211.07L163.53 208.25L164.64 205.49L165.85 202.77L167.17 200.12L168.58 197.52L170.09 194.98L171.69 192.51L173.39 190.1L175.17 187.77L177.04 185.5L178.99 183.31L181.03 181.2L183.14 179.16L185.33 177.21L187.6 175.34L189.94 173.55L192.34 171.86L194.81 170.26L197.35 168.75L199.95 167.33L202.6 166.02L205.32 164.81L208.09 163.7L210.91 162.69L213.77 161.8L216.69 161.02L219.65 160.35L222.65 159.79L225.69 159.36L228.77 159.05L231.88 158.86L235.03 158.79L403.38 158.79L406.53 158.86L409.64 159.05ZM311.05 217.3L306.87 217.72L302.75 218.3L298.68 219.04L294.67 219.94L290.72 220.99L286.83 222.19L283.01 223.53L279.26 225.02L275.58 226.65L271.98 228.41L268.45 230.3L265.02 232.33L261.67 234.48L258.41 236.75L255.24 239.14L252.17 241.65L249.2 244.27L246.33 247L243.57 249.84L240.93 252.77L238.39 255.81L235.97 258.94L233.68 262.17L231.5 265.49L229.46 268.89L227.54 272.37L225.76 275.93L224.12 279.57L222.61 283.28L221.25 287.07L220.04 290.91L218.98 294.82L218.07 298.79L217.32 302.82L216.73 306.9L216.31 311.03L216.05 315.2L215.96 319.42L216.05 323.63L216.31 327.81L216.73 331.93L217.32 336.01L218.07 340.04L218.98 344.01L220.04 347.92L221.25 351.77L222.61 355.55L224.11 359.26L225.76 362.9L227.54 366.46L229.46 369.95L231.5 373.35L233.67 376.66L235.97 379.89L238.39 383.02L240.92 386.06L243.57 389L246.33 391.83L249.2 394.56L252.17 397.18L255.24 399.69L258.4 402.08L261.66 404.35L265.01 406.5L268.45 408.53L271.97 410.42L275.57 412.18L279.25 413.81L283.01 415.3L286.83 416.64L290.72 417.84L294.67 418.89L298.68 419.79L302.75 420.53L306.87 421.11L311.04 421.54L315.26 421.79L319.53 421.88L323.79 421.79L328.01 421.54L332.18 421.11L336.3 420.53L340.37 419.79L344.38 418.89L348.34 417.84L352.23 416.64L356.05 415.3L359.8 413.81L363.48 412.18L367.08 410.42L370.6 408.53L374.04 406.5L377.39 404.35L380.65 402.08L383.82 399.69L386.89 397.18L389.86 394.56L392.72 391.83L395.48 389L398.13 386.06L400.66 383.02L403.08 379.89L405.38 376.66L407.55 373.35L409.6 369.95L411.51 366.46L413.29 362.9L414.94 359.26L416.44 355.55L417.8 351.77L419.01 347.92L420.07 344.01L420.98 340.04L421.73 336.01L422.32 331.93L422.74 327.81L423 323.63L423.09 319.42L423 315.2L422.74 311.03L422.32 306.9L421.73 302.82L420.98 298.79L420.07 294.82L419.01 290.91L417.8 287.07L416.44 283.28L414.94 279.57L413.29 275.93L411.51 272.37L409.6 268.89L407.55 265.49L405.38 262.17L403.08 258.94L400.66 255.81L398.13 252.77L395.48 249.84L392.72 247L389.85 244.27L386.88 241.65L383.81 239.14L380.65 236.75L377.39 234.48L374.04 232.33L370.6 230.3L367.08 228.41L363.48 226.65L359.8 225.02L356.04 223.53L352.22 222.19L348.33 220.99L344.38 219.94L340.37 219.04L336.3 218.3L332.18 217.72L328.01 217.3L323.79 217.04L319.53 216.96L315.26 217.04L311.05 217.3ZM422.28 188.54L420.98 188.72L419.7 188.96L418.45 189.27L417.23 189.64L416.03 190.07L414.87 190.57L413.73 191.12L412.63 191.72L411.57 192.38L410.54 193.1L409.55 193.86L408.61 194.67L407.7 195.53L406.84 196.44L406.03 197.38L405.27 198.37L404.55 199.4L403.89 200.47L403.28 201.57L402.73 202.7L402.24 203.87L401.81 205.06L401.43 206.29L401.13 207.54L400.88 208.81L400.71 210.11L400.6 211.43L400.56 212.76L400.6 214.1L400.71 215.42L400.88 216.72L401.13 217.99L401.43 219.24L401.81 220.47L402.24 221.66L402.73 222.83L403.28 223.96L403.89 225.06L404.55 226.13L405.27 227.16L406.03 228.14L406.84 229.09L407.7 230L408.61 230.85L409.55 231.67L410.54 232.43L411.57 233.14L412.63 233.81L413.73 234.41L414.87 234.96L416.03 235.46L417.23 235.89L418.45 236.26L419.7 236.57L420.98 236.81L422.28 236.99L423.59 237.1L424.93 237.13L426.27 237.1L427.59 236.99L428.88 236.81L430.16 236.57L431.41 236.26L432.63 235.89L433.83 235.46L435 234.96L436.13 234.41L437.23 233.81L438.3 233.14L439.32 232.43L440.31 231.67L441.26 230.85L442.16 230L443.02 229.09L443.83 228.14L444.6 227.16L445.31 226.13L445.97 225.06L446.58 223.96L447.13 222.83L447.62 221.66L448.06 220.47L448.43 219.24L448.74 217.99L448.98 216.72L449.16 215.42L449.26 214.1L449.3 212.76L449.26 211.43L449.16 210.11L448.98 208.81L448.74 207.54L448.43 206.29L448.06 205.06L447.62 203.87L447.13 202.7L446.58 201.57L445.97 200.47L445.31 199.4L444.6 198.37L443.83 197.38L443.02 196.44L442.16 195.53L441.26 194.67L440.31 193.86L439.32 193.1L438.3 192.38L437.23 191.72L436.13 191.12L435 190.57L433.83 190.07L432.63 189.64L431.41 189.27L430.16 188.96L428.88 188.72L427.59 188.54L426.27 188.43L424.93 188.4L423.59 188.43L422.28 188.54Z" id="b6gc8rpxVG"></path>
		<path d="M346.24 1.06L359.15 2.37L371.91 4.19L384.49 6.5L396.9 9.3L409.12 12.57L421.14 16.31L432.96 20.51L444.56 25.15L455.93 30.22L467.06 35.72L477.94 41.63L488.56 47.94L498.91 54.65L508.99 61.74L518.77 69.2L528.25 77.03L537.42 85.21L546.27 93.73L554.79 102.58L562.97 111.75L570.8 121.23L578.26 131.01L585.35 141.09L592.06 151.44L598.37 162.06L604.28 172.94L609.78 184.07L614.85 195.44L619.49 207.04L623.69 218.86L627.43 230.88L630.7 243.1L633.5 255.51L635.81 268.09L637.63 280.85L638.94 293.76L639.73 306.81L640 320L639.73 333.19L638.94 346.24L637.63 359.15L635.81 371.91L633.5 384.49L630.7 396.9L627.43 409.12L623.69 421.14L619.49 432.96L614.85 444.56L609.78 455.93L604.28 467.06L598.37 477.94L592.06 488.56L585.35 498.91L578.26 508.99L570.8 518.77L562.97 528.25L554.79 537.42L546.27 546.27L537.42 554.79L528.25 562.97L518.77 570.8L508.99 578.26L498.91 585.35L488.56 592.06L477.94 598.37L467.06 604.28L455.93 609.78L444.56 614.85L432.96 619.49L421.14 623.69L409.12 627.43L396.9 630.7L384.49 633.5L371.91 635.81L359.15 637.63L346.24 638.94L333.19 639.73L320 640L306.81 639.73L293.76 638.94L280.85 637.63L268.09 635.81L255.51 633.5L243.1 630.7L230.88 627.43L218.86 623.69L207.04 619.49L195.44 614.85L184.07 609.78L172.94 604.28L162.06 598.37L151.44 592.06L141.09 585.35L131.01 578.26L121.23 570.8L111.75 562.97L102.58 554.79L93.73 546.27L85.21 537.42L77.03 528.25L69.2 518.77L61.74 508.99L54.65 498.91L47.94 488.56L41.63 477.94L35.72 467.06L30.22 455.93L25.15 444.56L20.51 432.96L16.31 421.14L12.57 409.12L9.3 396.9L6.5 384.49L4.19 371.91L2.37 359.15L1.06 346.24L0.27 333.19L0 320L0.27 306.81L1.06 293.76L2.37 280.85L4.19 268.09L6.5 255.51L9.3 243.1L12.57 230.88L16.31 218.86L20.51 207.04L25.15 195.44L30.22 184.07L35.72 172.94L41.63 162.06L47.94 151.44L54.65 141.09L61.74 131.01L69.2 121.23L77.03 111.75L85.21 102.58L93.73 93.73L102.58 85.21L111.75 77.03L121.23 69.2L131.01 61.74L141.09 54.65L151.44 47.94L162.06 41.63L172.94 35.72L184.07 30.22L195.44 25.15L207.04 20.51L218.86 16.31L230.88 12.57L243.1 9.3L255.51 6.5L268.09 4.19L280.85 2.37L293.76 1.06L306.81 0.27L320 0L333.19 0.27L346.24 1.06ZM230.33 121.09L225.68 121.38L221.08 121.85L216.53 122.5L212.04 123.32L207.62 124.32L203.26 125.49L198.97 126.83L194.76 128.33L190.62 129.99L186.57 131.8L182.59 133.76L178.71 135.88L174.92 138.13L171.23 140.53L167.63 143.06L164.14 145.73L160.75 148.52L157.48 151.44L154.32 154.48L151.28 157.64L148.36 160.92L145.56 164.3L142.89 167.8L140.36 171.39L137.97 175.09L135.71 178.88L133.6 182.76L131.63 186.73L129.82 190.79L128.16 194.93L126.66 199.14L125.33 203.43L124.16 207.79L123.16 212.21L122.33 216.7L121.68 221.24L121.21 225.85L120.93 230.5L120.83 235.2L120.83 405.09L120.93 409.79L121.21 414.45L121.68 419.05L122.33 423.59L123.15 428.08L124.16 432.5L125.33 436.86L126.66 441.15L128.16 445.36L129.82 449.5L131.63 453.56L133.6 457.53L135.71 461.41L137.96 465.2L140.36 468.9L142.89 472.49L145.56 475.99L148.35 479.37L151.27 482.65L154.32 485.81L157.48 488.85L160.75 491.77L164.14 494.56L167.63 497.23L171.22 499.76L174.92 502.16L178.71 504.41L182.59 506.53L186.56 508.49L190.62 510.3L194.76 511.96L198.97 513.46L203.26 514.8L207.62 515.97L212.04 516.97L216.53 517.8L221.08 518.44L225.68 518.91L230.33 519.2L235.03 519.29L403.38 519.29L406.52 519.22L409.65 519.01L412.76 518.65L415.86 518.15L418.94 517.51L422.01 516.72L425.06 515.8L428.1 514.72L431.12 513.51L434.13 512.16L437.12 510.66L440.1 509.01L443.07 507.23L446.02 505.3L448.96 503.23L451.88 501.02L454.78 498.67L457.67 496.17L460.55 493.53L463.41 490.74L466.26 487.82L469.09 484.75L471.91 481.54L474.72 478.18L477.5 474.68L480.28 471.04L483.04 467.26L485.78 463.34L488.51 459.27L491.23 455.06L493.93 450.7L496.62 446.21L499.29 441.57L501.95 436.78L504.59 431.86L507.22 426.79L509.83 421.58L512.43 416.23L515.01 410.73L517.58 405.09L517.58 235.2L517.48 230.5L517.2 225.85L516.73 221.25L516.08 216.7L515.26 212.21L514.25 207.79L513.08 203.43L511.75 199.14L510.25 194.93L508.59 190.79L506.78 186.73L504.81 182.76L502.7 178.88L500.45 175.09L498.05 171.39L495.52 167.8L492.85 164.31L490.06 160.92L487.14 157.65L484.09 154.49L480.93 151.44L477.66 148.52L474.27 145.73L470.78 143.06L467.19 140.53L463.49 138.13L459.7 135.88L455.82 133.77L451.85 131.8L447.79 129.99L443.65 128.33L439.44 126.83L435.15 125.49L430.79 124.32L426.37 123.32L421.88 122.5L417.33 121.85L412.73 121.38L408.08 121.09L403.38 121L235.03 121L230.33 121.09Z" id="bmmKy25UV"></path>
		<path d="M253.69 319.42C253.69 355.11 283.22 384.15 319.53 384.15C355.83 384.15 385.37 355.11 385.37 319.42C385.37 283.72 355.83 254.68 319.53 254.68C283.22 254.68 253.69 283.72 253.69 319.42Z" id="d3YpUYLmkF"></path>
	</defs>
	<g>
		<use xlink:href="#b6gc8rpxVG" opacity="1" fill="#ffffff" fill-opacity="1"></use>
	</g>
	<g>
		<use xlink:href="#bmmKy25UV" opacity="1" fill="#ffffff" fill-opacity="1"></use>
	</g>
	<g>
		<use xlink:href="#d3YpUYLmkF" opacity="1" fill="#ffffff" fill-opacity="1"></use>
	</g>
</svg>