<?xml version="1.0" encoding="UTF-8" standalone="no"?>
<!DOCTYPE svg PUBLIC "-//W3C//DTD SVG 20010904//EN"
              "http://www.w3.org/TR/2001/REC-SVG-20010904/DTD/svg10.dtd">

<svg xmlns="http://www.w3.org/2000/svg"
     width="4.16333in" height="3.70667in"
     viewBox="0 0 1249 1112">

    <polyline stroke="red" stroke-width="3px" fill="none" points="406.00,937.00 403.34,963.00 403.34,963.00
             403.34,963.00 409.62,988.00 409.62,988.00
             410.11,996.52 404.11,1000.68 407.70,1011.00
             409.42,1015.95 412.90,1023.16 417.09,1026.35
             421.15,1029.45 426.14,1029.45 429.91,1036.00
             433.40,1042.05 431.52,1048.57 431.00,1055.00
             431.00,1055.00 434.00,1054.00 434.00,1054.00
             434.00,1054.00 432.00,1062.91 432.00,1062.91
             432.00,1062.91 445.00,1062.91 445.00,1062.91
             445.00,1062.91 454.00,1061.60 454.00,1061.60
             454.00,1061.60 469.00,1063.51 469.00,1063.51
             469.00,1063.51 491.00,1060.00 491.00,1060.00
             490.69,1062.40 489.99,1065.66 490.43,1067.98
             492.05,1076.43 500.78,1075.11 507.00,1074.00
             510.52,1087.55 528.08,1090.94 539.00,1084.04
             544.02,1080.86 550.89,1073.32 556.00,1071.93
             557.42,1071.56 569.62,1071.49 571.00,1071.93
             574.56,1073.01 575.93,1075.22 582.00,1077.00
             582.00,1077.00 579.00,1072.00 579.00,1072.00
             589.56,1071.63 585.07,1067.50 588.22,1058.00
             591.70,1047.49 589.43,1035.35 583.53,1026.01
             580.27,1020.85 577.61,1020.25 575.65,1015.99
             574.29,1013.02 573.28,1004.50 573.00,1001.00
             575.84,1000.55 578.34,1000.17 580.67,998.30
             584.08,995.57 591.07,981.43 591.63,977.00
             592.32,971.55 589.12,967.09 586.00,963.00
             595.26,963.01 607.68,967.43 610.43,958.00
             611.09,955.74 610.99,952.38 611.00,950.00
             611.00,950.00 620.00,951.00 620.00,951.00
             620.69,942.67 624.55,945.24 627.69,938.98
             630.36,933.65 627.61,919.09 639.00,918.38
             639.00,918.38 646.00,919.00 646.00,919.00
             646.00,919.00 648.00,905.00 648.00,905.00
             635.20,908.01 625.42,919.49 612.00,918.96
             612.00,918.96 588.00,914.40 588.00,914.40
             584.10,913.62 579.89,912.42 576.00,913.89
             570.75,915.88 569.06,920.57 563.99,924.37
             558.61,928.39 557.83,927.07 555.00,934.00
             555.00,934.00 543.00,929.00 543.00,929.00
             543.00,929.00 542.00,934.00 542.00,934.00
             531.26,928.06 531.91,931.11 522.00,929.56
             508.88,927.51 496.59,922.32 491.47,909.00
             489.87,904.85 490.01,902.32 490.00,898.00
             490.00,898.00 490.00,886.00 490.00,886.00
             490.00,886.00 466.00,883.00 466.00,883.00
             466.00,883.00 468.00,873.00 468.00,873.00
             464.99,873.00 459.72,872.77 457.02,873.65
             446.52,877.04 451.15,895.28 447.44,905.00
             444.91,911.62 441.00,912.31 438.00,917.04
             434.21,923.02 435.28,934.54 426.00,938.11
             421.07,940.01 411.81,937.27 406.00,937.00" />
</svg>
