<?xml version="1.0" encoding="UTF-8" standalone="no"?>
<!DOCTYPE svg PUBLIC "-//W3C//DTD SVG 20010904//EN"
              "http://www.w3.org/TR/2001/REC-SVG-20010904/DTD/svg10.dtd">

<svg xmlns="http://www.w3.org/2000/svg"
     width="4.16333in" height="3.70667in"
     viewBox="0 0 1249 1112">
  <path id="Верхнетоемский"
        fill="none" stroke="black" stroke-width="1"
        d="M 836.00,657.00
           C 836.00,657.00 788.00,660.00 788.00,660.00
             788.01,672.10 790.03,671.54 790.28,678.00
             790.53,684.79 788.18,690.19 787.72,693.00
             787.51,696.59 790.74,700.47 787.72,703.40
             785.25,705.52 780.95,704.81 778.00,705.18
             774.38,705.64 770.90,707.17 768.10,709.53
             762.78,714.02 760.54,724.34 749.00,725.89
             746.26,726.17 738.35,726.78 736.00,725.89
             732.85,724.86 730.34,722.17 727.00,721.47
             723.45,720.72 720.56,722.55 717.00,722.73
             713.70,722.90 710.20,721.25 707.31,723.60
             705.20,725.32 704.72,728.52 703.97,731.00
             702.35,736.31 696.93,747.94 703.23,751.69
             707.01,753.94 716.52,752.96 719.62,755.60
             722.99,758.46 723.16,763.83 714.00,764.00
             709.92,764.07 704.62,763.27 701.51,766.43
             699.56,768.40 699.19,771.29 696.73,773.70
             692.94,777.40 691.70,774.90 688.00,781.00
             681.19,779.86 682.59,782.80 679.20,783.29
             675.95,783.75 673.50,778.34 667.00,779.24
             663.96,779.66 662.54,781.06 660.00,782.37
             656.84,784.00 654.74,783.87 652.42,785.59
             648.37,788.61 648.64,790.90 641.00,795.00
             641.00,795.00 645.13,817.00 645.13,817.00
             645.13,817.00 651.69,829.00 651.69,829.00
             651.69,829.00 658.21,839.26 658.21,839.26
             658.21,839.26 670.00,843.00 670.00,843.00
             670.00,843.00 667.00,845.00 667.00,845.00
             675.26,853.77 674.96,853.99 681.31,864.00
             683.76,867.86 686.43,872.22 685.76,877.00
             685.16,881.30 681.40,885.41 679.00,889.00
             679.00,889.00 707.00,892.00 707.00,892.00
             706.32,897.15 703.38,912.60 706.02,916.70
             707.99,919.74 712.79,919.76 716.00,920.15
             721.07,920.77 727.00,922.36 732.00,921.90
             736.53,921.47 738.36,919.54 741.00,919.74
             744.56,920.02 749.95,925.65 756.00,928.00
             756.00,928.00 759.75,905.00 759.75,905.00
             760.67,899.71 762.04,895.06 768.00,893.61
             771.19,892.83 776.66,894.37 780.00,895.00
             780.64,890.16 781.89,875.53 789.02,876.32
             791.75,876.62 794.72,879.82 797.00,881.36
             800.29,883.58 803.20,884.22 807.00,885.00
             807.00,885.00 807.00,881.00 807.00,881.00
             822.61,886.20 817.05,882.17 831.00,882.00
             831.00,882.00 864.00,881.00 864.00,881.00
             864.00,881.00 887.00,880.00 887.00,880.00
             885.92,871.84 886.09,874.23 886.00,866.00
             886.00,866.00 885.05,856.00 885.05,856.00
             885.05,856.00 885.05,839.00 885.05,839.00
             885.05,835.49 885.17,832.18 887.65,829.39
             891.29,825.30 896.19,826.29 901.00,825.83
             901.00,825.83 926.00,825.00 926.00,825.00
             926.00,825.00 940.00,824.00 940.00,824.00
             940.00,824.00 954.00,824.00 954.00,824.00
             963.87,823.86 965.88,820.48 966.00,811.00
             966.19,794.96 963.65,793.25 963.57,787.00
             963.38,770.67 965.97,750.80 961.23,735.00
             961.23,735.00 952.58,714.00 952.58,714.00
             951.33,711.07 949.22,707.23 949.83,704.00
             950.57,700.07 954.16,697.20 957.00,694.73
             957.00,694.73 973.82,679.96 973.82,679.96
             983.42,669.47 984.20,657.33 986.00,644.00
             980.53,643.23 974.89,641.74 970.00,639.10
             967.29,637.63 962.38,633.89 960.00,633.23
             957.86,632.64 951.26,633.96 948.00,634.17
             948.00,634.17 923.00,634.17 923.00,634.17
             918.21,635.31 916.67,637.93 913.00,639.27
             913.00,639.27 896.00,641.71 896.00,641.71
             886.35,642.89 885.30,639.07 881.00,639.13
             878.38,639.16 876.01,641.12 873.00,641.44
             868.82,641.89 852.95,636.36 848.00,634.90
             844.79,633.95 839.47,633.15 837.29,636.43
             835.80,638.67 836.00,643.34 836.00,646.00
             836.00,646.00 836.00,657.00 836.00,657.00 Z" />
</svg>
