<?xml version="1.0" encoding="UTF-8" standalone="no"?>
<!DOCTYPE svg PUBLIC "-//W3C//DTD SVG 20010904//EN"
              "http://www.w3.org/TR/2001/REC-SVG-20010904/DTD/svg10.dtd">

<svg xmlns="http://www.w3.org/2000/svg"
     width="4.16333in" height="3.70667in"
     viewBox="0 0 1249 1112">
  <path id="Виноградовский"
        fill="none" stroke="black" stroke-width="1"
        d="M 559.00,608.00
           C 559.00,608.00 559.00,614.00 559.00,614.00
             557.08,614.01 553.84,613.88 552.11,614.60
             545.34,617.40 549.39,627.08 551.00,632.00
             551.00,632.00 533.00,633.00 533.00,633.00
             528.75,633.05 523.66,632.33 520.28,635.43
             516.11,639.25 515.13,654.26 515.00,660.00
             515.00,660.00 512.00,659.00 512.00,659.00
             512.00,659.00 510.00,674.00 510.00,674.00
             510.00,674.00 500.00,674.00 500.00,674.00
             499.60,678.91 498.68,684.27 497.28,689.00
             493.58,701.48 484.33,716.27 501.00,724.43
             503.60,725.71 507.15,726.43 510.00,727.00
             510.00,727.00 509.00,730.00 509.00,730.00
             522.28,725.69 522.61,728.14 535.00,731.98
             546.38,735.50 547.41,732.66 554.00,744.00
             561.71,740.48 560.04,742.76 566.00,742.65
             566.00,742.65 575.00,740.90 575.00,740.90
             575.00,740.90 591.00,746.00 591.00,746.00
             587.88,747.95 585.92,749.11 583.53,752.04
             582.39,753.44 581.18,755.38 580.38,757.00
             576.67,764.49 579.09,768.49 587.00,770.32
             595.29,772.24 607.59,769.91 615.00,774.72
             624.28,780.76 626.03,795.51 636.00,796.55
             640.69,797.05 644.64,793.15 648.00,790.42
             652.73,786.60 660.85,781.15 667.00,780.37
             672.64,779.65 677.23,783.94 686.00,780.89
             695.42,777.62 699.41,768.52 706.00,765.31
             710.75,763.00 718.89,765.37 720.26,759.91
             721.00,756.93 718.33,755.36 715.98,754.48
             711.14,752.68 705.08,753.14 702.31,747.90
             700.25,744.43 701.38,739.59 702.31,736.00
             703.34,732.93 705.28,727.66 707.55,725.43
             710.38,722.66 713.42,723.19 717.00,722.83
             735.20,721.00 727.91,726.20 745.00,726.00
             759.41,725.83 759.79,718.19 769.01,710.21
             771.71,707.88 774.53,706.35 778.00,705.53
             781.14,704.78 784.96,705.29 787.26,702.57
             789.85,699.50 788.03,695.70 788.65,691.00
             788.65,691.00 789.91,683.00 789.91,683.00
             790.17,679.35 789.11,664.05 787.57,661.26
             786.45,659.23 784.14,657.84 782.49,655.89
             781.17,654.34 780.35,652.40 778.59,651.29
             776.73,650.12 771.41,649.64 769.00,649.25
             769.00,649.25 748.00,645.87 748.00,645.87
             748.00,645.87 728.00,642.04 728.00,642.04
             728.00,642.04 697.00,644.73 697.00,644.73
             692.94,644.50 689.04,642.01 685.00,640.93
             680.43,639.70 676.64,640.05 672.00,640.00
             665.76,639.92 650.52,637.55 645.00,635.03
             635.00,630.47 639.30,622.55 637.43,618.37
             635.89,614.95 626.96,611.27 628.34,602.00
             629.42,594.80 636.95,588.84 633.81,583.21
             632.25,580.42 628.98,579.40 626.00,578.97
             626.00,578.97 617.00,578.97 617.00,578.97
             617.00,578.97 601.00,577.01 601.00,577.01
             595.83,576.90 590.37,577.09 586.18,580.57
             579.64,585.99 579.00,597.34 574.36,602.67
             570.45,607.18 564.59,607.88 559.00,608.00 Z
           M 656.00,837.00
           C 656.00,837.00 656.00,838.00 656.00,838.00
             656.00,838.00 657.00,837.00 657.00,837.00
             657.00,837.00 656.00,837.00 656.00,837.00 Z" />
</svg>
