<?xml version="1.0" encoding="UTF-8" standalone="no"?>
<!DOCTYPE svg PUBLIC "-//W3C//DTD SVG 20010904//EN"
              "http://www.w3.org/TR/2001/REC-SVG-20010904/DTD/svg10.dtd">

<svg xmlns="http://www.w3.org/2000/svg"
     width="4.16333in" height="3.70667in"
     viewBox="0 0 1249 1112">
  <path id="Мезенский"
        fill="none" stroke="black" stroke-width="1"
        d="M 542.00,42.87
           C 539.58,42.59 537.44,42.02 535.00,42.87
             530.90,43.95 528.08,47.75 525.63,51.00
             521.15,56.95 513.75,70.45 508.91,74.10
             508.91,74.10 499.00,80.06 499.00,80.06
             482.00,90.62 481.07,92.12 461.00,96.58
             453.99,98.13 442.07,100.08 439.65,108.01
             438.22,112.73 440.78,115.96 442.68,120.00
             442.68,120.00 453.00,142.00 453.00,142.00
             453.00,142.00 460.00,139.00 460.00,139.00
             460.00,139.00 478.80,189.00 478.80,189.00
             484.70,203.75 487.71,214.94 505.00,219.00
             505.00,219.00 504.00,214.00 504.00,214.00
             512.72,216.31 526.13,218.53 532.47,225.33
             537.13,230.32 539.29,238.82 542.00,245.00
             550.12,243.72 551.48,245.46 559.00,246.72
             559.00,246.72 583.00,250.25 583.00,250.25
             583.00,250.25 640.00,259.92 640.00,259.92
             645.92,260.91 670.71,265.93 674.96,267.97
             683.64,272.13 676.05,278.78 687.00,284.08
             691.60,286.31 706.21,289.12 712.00,290.42
             720.65,292.37 726.86,294.74 735.00,298.00
             733.95,292.41 733.07,289.87 733.00,284.00
             733.00,284.00 733.00,258.00 733.00,258.00
             733.01,253.34 732.70,248.70 737.11,245.75
             740.13,243.73 743.68,244.68 747.00,245.25
             753.48,246.36 765.32,248.34 771.00,250.90
             775.49,252.93 780.80,258.13 785.78,254.40
             787.78,252.90 790.81,246.80 793.02,244.01
             797.65,238.16 809.12,228.25 816.00,225.36
             823.73,222.12 842.50,225.99 852.00,226.04
             852.00,226.04 866.00,226.04 866.00,226.04
             866.00,226.04 878.00,227.00 878.00,227.00
             878.00,227.00 899.00,227.00 899.00,227.00
             899.00,227.00 921.00,228.00 921.00,228.00
             931.05,227.88 969.61,218.05 982.00,215.12
             989.59,213.32 997.16,211.04 1005.00,211.00
             1005.00,211.00 1009.00,211.00 1009.00,211.00
             1009.00,211.00 1032.00,209.09 1032.00,209.09
             1032.00,209.09 1057.00,208.00 1057.00,208.00
             1057.00,208.00 1077.00,206.08 1077.00,206.08
             1077.00,206.08 1089.00,206.08 1089.00,206.08
             1089.00,206.08 1083.91,154.00 1083.91,154.00
             1083.91,154.00 1081.28,134.00 1081.28,134.00
             1081.28,134.00 1079.02,109.00 1079.02,109.00
             1079.02,109.00 1076.95,90.00 1076.95,90.00
             1076.52,86.37 1075.92,82.10 1072.78,79.74
             1070.08,77.71 1066.21,78.01 1063.00,78.00
             1063.00,78.00 1053.00,78.00 1053.00,78.00
             1053.00,78.00 1039.00,79.00 1039.00,79.00
             1039.00,79.00 1019.00,79.00 1019.00,79.00
             1016.54,79.00 1012.50,78.76 1010.43,80.17
             1006.50,82.86 1009.04,88.91 1002.79,95.96
             995.24,104.48 990.14,101.84 990.00,116.00
             990.00,116.00 987.00,116.00 987.00,116.00
             987.00,121.02 987.96,128.86 984.57,132.79
             978.15,140.23 963.81,137.33 955.00,138.17
             948.97,138.75 944.00,140.67 938.00,138.78
             932.85,137.15 925.92,131.83 921.00,128.81
             921.00,128.81 881.00,105.51 881.00,105.51
             881.00,105.51 838.00,95.44 838.00,95.44
             831.36,94.40 831.74,95.84 824.00,93.33
             824.00,93.33 809.00,87.73 809.00,87.73
             800.88,83.40 803.88,80.12 791.00,80.00
             791.00,80.00 791.00,76.00 791.00,76.00
             779.67,74.46 783.32,72.42 776.99,69.70
             776.99,69.70 765.00,66.53 765.00,66.53
             755.04,62.71 747.51,57.49 740.00,50.00
             734.60,44.61 729.93,38.41 724.00,33.62
             721.62,31.70 718.32,28.94 715.04,29.42
             710.52,30.09 708.91,36.32 707.67,40.00
             703.15,53.42 702.84,58.04 703.00,72.00
             703.06,76.74 706.36,91.37 697.98,91.37
             692.88,91.37 687.52,81.53 683.91,78.21
             677.71,72.52 672.66,74.33 668.39,69.78
             664.11,65.20 665.80,60.84 663.43,56.02
             659.73,48.49 649.50,47.07 642.00,47.00
             642.00,44.15 642.20,39.64 641.35,37.02
             639.40,30.96 634.60,30.08 629.00,30.00
             629.00,30.00 604.00,32.68 604.00,32.68
             604.00,32.68 582.00,32.00 582.00,32.00
             584.09,29.34 586.35,26.69 585.64,23.01
             584.27,15.89 566.84,8.33 560.00,9.19
             547.38,10.78 542.10,32.32 542.00,42.87 Z" />
</svg>
