<?xml version="1.0" encoding="UTF-8" standalone="no"?>
<!DOCTYPE svg PUBLIC "-//W3C//DTD SVG 20010904//EN"
              "http://www.w3.org/TR/2001/REC-SVG-20010904/DTD/svg10.dtd">

<svg xmlns="http://www.w3.org/2000/svg"
     width="4.16333in" height="3.70667in"
     viewBox="0 0 1249 1112">
  <path id="Онежский"
        fill="none" stroke="black" stroke-width="1"
        d="M 111.00,326.00
           C 111.86,336.25 123.37,360.65 129.61,369.00
             133.13,373.71 137.82,377.76 144.00,377.82
             148.11,377.86 152.00,375.98 156.00,375.32
             160.36,374.60 162.61,375.53 167.00,373.24
             171.57,370.85 176.16,365.16 180.72,368.61
             184.43,371.42 183.30,376.32 185.17,380.00
             188.16,385.85 197.27,389.08 196.62,396.00
             196.16,400.91 189.60,405.73 188.62,412.00
             187.63,418.33 194.45,425.89 196.16,434.00
             198.63,444.00 196.01,453.94 196.16,464.00
             196.16,464.00 192.00,463.00 192.00,463.00
             192.00,463.00 192.00,470.00 192.00,470.00
             180.94,470.24 181.05,473.05 174.00,474.09
             169.36,474.78 165.60,473.16 162.04,475.02
             156.84,477.73 152.30,488.77 142.00,489.80
             134.08,490.60 127.04,485.06 122.63,479.00
             120.34,475.85 119.36,472.56 115.82,470.44
             115.82,470.44 77.21,460.49 77.21,460.49
             77.21,460.49 70.00,454.00 70.00,454.00
             70.00,454.00 68.06,473.00 68.06,473.00
             67.77,478.84 69.97,480.45 68.06,487.00
             66.27,492.41 63.26,495.68 59.80,500.00
             56.59,504.00 54.14,507.59 49.00,509.10
             43.51,510.92 27.27,508.99 20.00,509.10
             12.97,509.01 7.80,508.92 9.33,518.00
             11.55,531.15 22.78,537.79 26.56,545.00
             31.58,554.58 29.35,569.78 28.00,580.00
             31.16,581.03 35.39,582.23 36.18,586.02
             36.77,588.85 33.12,594.33 31.76,597.00
             27.84,604.71 23.23,612.05 24.17,621.00
             25.05,629.33 28.86,635.64 32.14,643.00
             32.14,643.00 42.60,666.00 42.60,666.00
             48.54,674.78 59.79,683.00 69.00,688.14
             77.58,692.93 83.70,697.74 94.00,695.10
             96.68,694.41 98.64,693.69 100.67,691.72
             106.60,686.01 110.47,670.14 112.00,662.00
             112.00,662.00 168.00,676.01 168.00,676.01
             168.00,676.01 186.00,680.82 186.00,680.82
             194.87,681.61 194.91,675.85 198.49,671.00
             202.01,666.26 206.24,664.26 208.73,661.68
             212.97,657.28 214.71,645.98 224.00,653.28
             224.00,653.28 228.00,657.00 228.00,657.00
             232.78,652.92 231.99,650.90 232.00,645.00
             240.34,645.02 249.24,646.31 257.00,649.45
             257.00,649.45 273.00,657.00 273.00,657.00
             273.00,657.00 272.00,653.00 272.00,653.00
             272.00,653.00 279.00,651.00 279.00,651.00
             279.00,651.00 282.00,660.00 282.00,660.00
             290.01,656.12 286.78,654.19 288.90,647.00
             291.95,636.63 296.65,625.91 294.00,615.00
             294.00,615.00 304.00,616.00 304.00,616.00
             304.00,616.00 299.99,599.00 299.99,599.00
             299.99,599.00 306.00,582.00 306.00,582.00
             306.00,582.00 315.75,555.00 315.75,555.00
             315.75,555.00 325.23,542.00 325.23,542.00
             325.23,542.00 331.63,531.41 331.63,531.41
             335.32,527.53 348.54,524.32 354.00,523.44
             358.00,522.79 361.57,523.18 364.49,519.77
             367.05,516.79 367.60,510.84 368.24,507.00
             368.56,503.92 369.27,501.08 368.24,498.00
             367.54,495.32 365.85,493.21 364.22,491.00
             362.09,488.11 359.92,484.77 356.96,482.70
             351.51,478.88 340.98,477.93 335.00,475.08
             329.05,472.25 323.53,465.94 318.00,462.00
             318.00,462.00 314.00,478.00 314.00,478.00
             314.00,478.00 303.00,474.74 303.00,474.74
             296.40,473.09 287.33,472.88 284.78,465.00
             283.20,460.10 287.79,456.46 290.65,450.00
             292.83,445.09 296.26,429.34 295.96,424.00
             295.51,416.16 289.02,411.83 282.00,409.93
             282.00,409.93 267.00,407.69 267.00,407.69
             261.60,406.68 236.13,399.10 232.02,396.64
             220.62,389.82 229.44,380.58 228.26,374.00
             226.43,363.84 206.70,363.78 199.00,359.59
             192.11,355.83 185.66,345.93 179.00,342.44
             175.02,340.35 160.21,337.35 155.00,336.12
             155.00,336.12 111.00,326.00 111.00,326.00 Z
           M 383.00,495.00
           C 383.00,495.00 383.00,496.00 383.00,496.00
             383.00,496.00 384.00,495.00 384.00,495.00
             384.00,495.00 383.00,495.00 383.00,495.00 Z" />
</svg>
