<?xml version="1.0" encoding="UTF-8" standalone="no"?>
<!DOCTYPE svg PUBLIC "-//W3C//DTD SVG 20010904//EN"
              "http://www.w3.org/TR/2001/REC-SVG-20010904/DTD/svg10.dtd">

<svg xmlns="http://www.w3.org/2000/svg"
     width="4.16333in" height="3.70667in"
     viewBox="0 0 1249 1112">
  <path id="Пинежский"
        fill="none" stroke="black" stroke-width="1"
        d="M 541.00,244.00
           C 541.00,244.00 536.00,280.00 536.00,280.00
             536.00,280.00 529.00,278.00 529.00,278.00
             529.00,278.00 525.00,291.00 525.00,291.00
             525.00,291.00 520.00,289.00 520.00,289.00
             520.00,289.00 510.00,311.00 510.00,311.00
             510.00,311.00 531.00,317.00 531.00,317.00
             531.00,317.00 525.00,332.00 525.00,332.00
             525.00,332.00 529.00,332.00 529.00,332.00
             529.00,332.00 521.00,344.00 521.00,344.00
             523.00,345.62 524.27,346.47 525.26,349.02
             527.54,354.89 522.33,370.15 520.00,376.00
             520.00,376.00 565.00,386.56 565.00,386.56
             572.04,389.19 576.34,394.95 585.00,397.90
             585.00,397.90 607.89,402.72 607.89,402.72
             614.89,405.91 610.56,415.26 617.21,419.99
             620.53,422.36 626.96,422.80 631.00,423.42
             631.00,423.42 660.00,428.00 660.00,428.00
             656.43,435.57 650.05,450.16 644.82,455.99
             637.00,464.69 620.70,471.95 610.00,477.00
             611.07,481.76 614.70,495.08 616.82,498.96
             620.10,504.93 624.52,505.32 624.93,512.00
             624.93,512.00 622.28,532.00 622.28,532.00
             622.28,532.00 619.20,557.00 619.20,557.00
             616.32,566.15 610.31,564.43 610.00,578.00
             610.00,578.00 618.00,578.96 618.00,578.96
             622.97,579.18 633.15,577.99 635.17,584.11
             636.90,589.35 631.21,592.25 629.17,596.09
             626.71,600.74 627.75,612.00 632.22,615.40
             634.14,616.86 635.75,616.82 638.00,617.00
             638.00,617.00 638.00,633.00 638.00,633.00
             651.23,638.80 663.78,639.93 678.00,640.00
             692.15,640.07 685.45,645.36 701.00,644.99
             701.00,644.99 729.00,641.43 729.00,641.43
             733.33,641.52 734.16,643.83 739.00,644.79
             739.00,644.79 758.00,647.27 758.00,647.27
             758.00,647.27 780.00,651.00 780.00,651.00
             780.36,661.42 786.56,660.72 795.00,659.84
             795.00,659.84 826.00,657.91 826.00,657.91
             826.00,657.91 836.00,657.00 836.00,657.00
             836.00,657.00 836.00,647.00 836.00,647.00
             836.01,641.69 835.95,634.93 843.00,634.40
             843.00,634.40 870.00,640.91 870.00,640.91
             875.63,641.25 877.80,639.63 881.00,639.65
             881.00,639.65 892.00,641.90 892.00,641.90
             895.23,642.13 909.85,640.00 913.00,639.01
             921.19,636.45 919.10,634.06 930.00,634.00
             930.00,634.00 948.00,634.00 948.00,634.00
             948.00,634.00 960.00,633.00 960.00,633.00
             954.01,625.96 951.64,628.42 946.04,624.35
             941.43,621.00 933.83,608.63 932.53,603.00
             931.90,600.30 931.97,596.80 932.00,594.00
             932.12,584.01 936.49,579.32 936.90,571.00
             937.44,559.77 927.81,541.36 920.68,533.01
             917.27,529.02 910.32,523.86 906.00,520.40
             895.48,511.99 885.04,504.23 872.00,500.09
             866.44,498.33 857.45,499.72 846.00,493.73
             843.26,492.30 838.74,488.44 836.00,486.37
             831.38,482.89 823.84,477.80 820.09,473.96
             820.09,473.96 801.00,451.00 801.00,451.00
             806.30,448.70 817.81,442.57 819.77,437.00
             820.74,434.23 818.65,430.60 817.60,428.00
             815.31,422.28 812.69,409.06 807.87,405.93
             804.61,403.82 798.93,404.12 795.00,403.34
             795.00,403.34 774.00,400.72 774.00,400.72
             774.00,400.72 759.00,398.00 759.00,398.00
             759.00,398.00 762.83,379.00 762.83,379.00
             763.87,366.19 750.07,371.58 748.35,363.89
             746.96,357.66 752.87,354.49 754.86,351.57
             756.98,348.47 758.68,336.40 759.72,332.00
             760.28,329.14 761.07,326.85 759.72,324.00
             758.83,321.87 754.61,317.23 752.89,315.00
             749.25,310.29 745.94,305.15 741.00,301.68
             724.87,290.36 706.73,291.14 690.00,284.91
             675.93,279.67 684.21,271.15 672.00,266.76
             672.00,266.76 643.00,260.40 643.00,260.40
             643.00,260.40 577.00,249.27 577.00,249.27
             577.00,249.27 541.00,244.00 541.00,244.00 Z" />
</svg>
