<?xml version="1.0" encoding="UTF-8" standalone="no"?>
<!DOCTYPE svg PUBLIC "-//W3C//DTD SVG 20010904//EN"
              "http://www.w3.org/TR/2001/REC-SVG-20010904/DTD/svg10.dtd">

<svg xmlns="http://www.w3.org/2000/svg"
     width="4.16333in" height="3.70667in"
     viewBox="0 0 1249 1112">
  <path id="Плесецкий"
        fill="none" stroke="black" stroke-width="1"
        d="M 110.00,326.00
           C 110.00,326.00 110.00,327.00 110.00,327.00
             110.00,327.00 111.00,326.00 111.00,326.00
             111.00,326.00 110.00,326.00 110.00,326.00 Z
           M 367.00,356.00
           C 367.00,356.00 367.00,357.00 367.00,357.00
             367.00,357.00 368.00,356.00 368.00,356.00
             368.00,356.00 367.00,356.00 367.00,356.00 Z
           M 369.00,357.00
           C 369.00,357.00 369.00,358.00 369.00,358.00
             369.00,358.00 370.00,357.00 370.00,357.00
             370.00,357.00 369.00,357.00 369.00,357.00 Z
           M 393.00,448.00
           C 393.00,448.00 386.58,481.00 386.58,481.00
             386.58,481.00 384.00,496.00 384.00,496.00
             373.65,497.37 376.97,497.24 367.00,495.00
             368.37,499.23 368.99,500.47 368.40,505.00
             367.86,509.08 366.95,515.60 364.35,518.79
             361.29,522.54 357.38,522.78 353.00,523.61
             347.04,524.74 336.55,527.01 332.21,531.22
             329.74,533.62 327.48,538.02 325.48,541.00
             322.14,545.98 318.07,550.60 315.37,556.00
             315.37,556.00 306.95,579.00 306.95,579.00
             305.47,583.04 300.71,595.40 300.50,599.00
             300.32,602.02 303.03,612.66 304.00,616.00
             304.00,616.00 294.00,615.00 294.00,615.00
             295.78,628.50 292.94,632.48 289.43,645.00
             287.21,652.89 289.07,654.32 282.00,660.00
             282.00,660.00 279.00,651.00 279.00,651.00
             279.00,651.00 272.00,653.00 272.00,653.00
             272.00,653.00 273.00,657.00 273.00,657.00
             259.82,649.50 247.28,645.05 232.00,645.00
             231.92,651.36 231.61,651.28 229.00,657.00
             226.29,655.13 222.28,651.46 219.00,651.37
             214.13,651.24 212.08,656.75 209.47,659.96
             209.47,659.96 199.33,670.00 199.33,670.00
             195.98,674.01 193.94,679.90 188.00,680.49
             184.87,680.79 169.30,676.20 165.00,675.13
             165.00,675.13 112.00,662.00 112.00,662.00
             109.14,672.80 107.48,685.81 98.00,693.00
             103.47,695.24 113.11,695.15 120.61,704.09
             124.44,708.66 123.97,712.48 124.00,718.00
             124.00,718.00 125.87,735.00 125.87,735.00
             125.87,735.00 121.52,756.00 121.52,756.00
             117.52,766.13 108.98,772.26 108.00,782.89
             111.59,782.14 113.33,781.79 117.00,782.89
             121.96,784.13 127.22,786.49 129.99,791.02
             132.40,794.94 131.76,797.77 132.17,802.00
             132.17,802.00 133.22,816.00 133.22,816.00
             133.22,816.00 134.78,822.00 134.78,822.00
             134.78,822.00 135.33,826.91 135.33,826.91
             136.25,830.41 139.36,831.99 141.26,835.01
             143.29,838.24 142.99,841.37 143.00,845.00
             143.00,845.00 146.00,843.00 146.00,843.00
             154.56,852.06 153.26,855.49 167.00,857.05
             168.66,857.24 172.39,857.89 173.83,857.62
             176.73,857.07 178.07,854.54 181.01,853.84
             182.87,853.14 187.68,853.89 189.80,853.84
             189.80,853.84 189.80,863.98 189.80,863.98
             189.80,863.98 192.23,867.98 192.23,867.98
             192.23,867.98 209.00,873.00 209.00,873.00
             209.00,873.00 211.00,868.00 211.00,868.00
             211.00,868.00 202.00,865.00 202.00,865.00
             204.21,852.64 202.23,852.67 202.00,842.00
             206.33,844.01 219.46,850.15 223.78,848.39
             225.63,847.63 226.02,846.53 227.00,845.00
             221.96,842.13 221.32,840.54 220.00,835.00
             223.66,834.48 230.16,832.41 233.29,833.20
             239.70,834.83 239.60,839.50 243.22,842.28
             245.36,843.92 257.77,847.26 261.00,848.00
             258.62,851.65 254.00,856.58 256.00,861.00
             252.63,864.75 252.10,867.17 251.00,872.00
             251.00,872.00 257.00,875.00 257.00,875.00
             257.00,875.00 253.00,881.00 253.00,881.00
             253.00,881.00 266.00,884.00 266.00,884.00
             266.00,884.00 265.00,889.00 265.00,889.00
             270.41,888.86 272.81,888.47 276.39,883.96
             278.32,881.53 280.46,876.50 283.21,875.31
             287.83,873.32 295.54,879.30 299.73,876.94
             305.20,873.85 306.89,857.37 308.17,855.11
             311.65,848.99 317.91,852.56 321.69,849.40
             323.43,847.94 327.26,837.16 326.75,835.00
             325.77,830.88 323.73,832.96 324.00,825.00
             327.91,826.47 333.69,828.21 337.58,825.71
             340.07,824.12 341.10,819.71 342.00,817.00
             344.35,809.96 349.52,798.27 347.69,791.04
             347.69,791.04 341.70,780.04 341.70,780.04
             336.79,771.37 328.87,777.65 326.00,769.00
             338.49,768.96 339.95,765.70 337.00,754.00
             343.53,752.18 346.06,751.72 348.00,759.00
             351.89,758.82 360.57,757.82 364.00,756.36
             368.30,754.54 371.00,751.17 376.00,750.35
             382.43,749.30 385.63,753.73 390.00,755.28
             392.89,756.30 395.53,755.68 397.79,757.02
             401.00,758.93 401.18,762.24 402.49,764.96
             404.00,768.09 405.81,768.97 406.98,771.17
             408.39,773.81 407.68,776.43 408.74,778.89
             410.66,783.35 416.79,783.66 421.00,784.00
             421.00,784.00 421.00,796.00 421.00,796.00
             423.89,796.13 430.44,796.54 432.52,798.59
             434.90,800.96 433.12,815.99 431.43,818.94
             428.80,823.54 425.88,822.32 424.17,824.57
             422.95,826.18 423.03,829.06 423.00,831.00
             422.98,832.94 422.85,837.10 423.60,838.78
             425.80,843.70 434.62,842.57 439.00,843.33
             443.08,844.04 446.83,846.61 449.69,844.94
             452.61,843.23 453.56,834.28 454.00,831.00
             454.00,831.00 461.00,833.00 461.00,833.00
             460.69,818.74 456.55,818.49 454.00,812.00
             454.00,812.00 451.24,799.00 451.24,799.00
             449.39,793.62 445.52,788.42 442.00,784.00
             442.00,784.00 461.00,781.17 461.00,781.17
             464.90,780.79 469.48,781.58 472.96,779.69
             478.30,776.78 479.95,769.12 483.07,764.00
             487.28,757.08 492.68,750.06 498.05,744.00
             502.52,738.95 508.20,733.62 510.00,727.00
             510.00,727.00 502.00,725.00 502.00,725.00
             495.24,722.18 489.64,714.42 491.17,707.00
             492.34,701.36 498.77,694.18 494.98,688.30
             492.62,684.65 487.22,686.14 483.51,681.78
             478.63,676.04 484.01,668.38 475.79,660.21
             471.62,656.06 458.92,654.18 453.00,654.18
             453.00,654.18 440.00,655.00 440.00,655.00
             428.36,654.95 429.83,650.98 423.00,651.00
             423.00,651.00 417.00,640.00 417.00,640.00
             417.00,640.00 413.00,642.00 413.00,642.00
             413.00,626.25 409.82,633.24 409.00,623.00
             409.00,623.00 412.00,624.00 412.00,624.00
             412.00,624.00 414.00,619.00 414.00,619.00
             414.00,619.00 418.00,620.00 418.00,620.00
             418.00,620.00 424.63,579.00 424.63,579.00
             424.63,579.00 423.38,567.00 423.38,567.00
             423.38,567.00 426.65,549.00 426.65,549.00
             426.54,543.84 422.59,538.56 422.09,530.00
             421.60,521.49 425.13,517.57 427.25,510.00
             427.25,510.00 434.83,473.00 434.83,473.00
             435.01,470.79 435.02,468.29 433.40,466.56
             431.26,464.27 418.60,461.72 415.00,461.00
             418.34,455.69 419.30,454.59 414.07,450.46
             412.45,449.19 410.87,447.80 408.83,447.29
             408.83,447.29 393.00,448.00 393.00,448.00 Z
           M 160.00,475.00
           C 160.00,475.00 165.00,474.00 165.00,474.00
             165.00,474.00 160.00,475.00 160.00,475.00 Z
           M 8.00,516.00
           C 8.00,516.00 13.00,510.00 13.00,510.00
             8.74,509.54 8.42,512.49 8.00,516.00 Z
           M 431.00,823.00
           C 431.00,823.00 431.00,824.00 431.00,824.00
             431.00,824.00 430.00,823.00 430.00,823.00
             430.00,823.00 431.00,823.00 431.00,823.00 Z
           M 257.00,862.00
           C 257.00,862.00 257.00,863.00 257.00,863.00
             257.00,863.00 256.00,862.00 256.00,862.00
             256.00,862.00 257.00,862.00 257.00,862.00 Z" />
</svg>
