<?xml version="1.0" encoding="UTF-8" standalone="no"?>
<!DOCTYPE svg PUBLIC "-//W3C//DTD SVG 20010904//EN"
              "http://www.w3.org/TR/2001/REC-SVG-20010904/DTD/svg10.dtd">

<svg xmlns="http://www.w3.org/2000/svg"
     width="4.16333in" height="3.70667in"
     viewBox="0 0 1249 1112">
  <path id="Приморский"
        fill="none" stroke="black" stroke-width="1"
        d="M 210.00,299.00
           C 207.99,286.21 199.92,283.25 192.33,274.00
             186.59,267.02 187.84,263.19 183.75,257.00
             177.49,247.52 157.77,234.67 147.00,230.46
             142.53,228.72 134.62,226.93 130.02,228.74
             122.59,231.66 122.15,243.41 119.54,250.00
             116.49,257.70 106.54,266.86 98.00,267.75
             94.90,268.07 91.10,266.70 88.00,266.00
             88.00,281.44 89.17,275.36 90.70,286.00
             91.42,290.95 90.34,293.93 92.53,299.00
             94.61,303.81 99.14,308.55 102.11,313.00
             104.89,317.16 107.83,324.38 112.09,326.69
             115.15,328.35 127.76,330.14 132.00,331.00
             132.00,331.00 176.00,341.22 176.00,341.22
             187.23,345.00 189.19,355.55 197.00,359.86
             197.00,359.86 223.96,367.28 223.96,367.28
             237.50,374.95 216.15,388.98 230.02,396.73
             233.00,398.39 242.28,400.87 246.00,402.02
             246.00,402.02 264.00,407.68 264.00,407.68
             272.94,409.21 282.19,408.01 290.00,413.64
             292.39,415.36 295.26,418.15 296.22,421.00
             297.19,423.86 296.05,427.15 295.42,430.00
             294.35,434.89 292.32,447.24 290.16,451.00
             287.74,455.22 281.62,460.01 283.75,466.00
             286.81,474.60 295.26,473.08 302.00,474.52
             302.00,474.52 314.00,478.00 314.00,478.00
             314.00,478.00 318.00,462.00 318.00,462.00
             322.72,465.91 327.67,472.75 332.01,474.81
             338.90,478.09 351.11,478.55 356.96,482.70
             362.37,486.54 361.68,491.10 365.39,494.00
             368.46,496.40 379.16,498.38 382.30,496.01
             384.86,494.07 385.70,486.17 386.25,483.00
             386.25,483.00 393.00,448.00 393.00,448.00
             397.45,448.00 402.99,448.16 406.96,445.86
             412.99,442.38 415.08,430.50 416.00,424.00
             429.93,428.56 426.91,426.01 439.00,426.60
             439.00,426.60 455.00,429.00 455.00,429.00
             455.00,429.00 455.00,422.00 455.00,422.00
             444.58,421.12 442.25,418.63 439.00,409.00
             454.23,414.08 470.10,416.90 486.00,419.00
             486.10,408.15 488.03,408.97 489.74,400.00
             492.10,387.63 495.00,368.37 495.00,356.00
             506.66,357.54 511.87,358.34 515.00,345.00
             521.54,344.94 525.69,336.95 529.00,332.00
             529.00,332.00 525.00,332.00 525.00,332.00
             525.00,332.00 531.00,317.00 531.00,317.00
             531.00,317.00 510.00,311.00 510.00,311.00
             510.00,311.00 520.00,289.00 520.00,289.00
             520.00,289.00 525.00,291.00 525.00,291.00
             525.00,291.00 529.00,278.00 529.00,278.00
             529.00,278.00 536.00,280.00 536.00,280.00
             537.52,271.92 541.92,249.11 540.67,242.00
             540.09,238.64 538.68,236.05 537.30,233.00
             535.77,229.59 534.75,226.14 531.79,223.64
             526.92,219.52 510.61,215.25 504.00,214.00
             504.00,214.00 505.00,219.00 505.00,219.00
             489.05,216.74 486.11,207.29 480.80,194.00
             480.80,194.00 472.34,173.00 472.34,173.00
             472.34,173.00 460.00,139.00 460.00,139.00
             460.00,139.00 453.00,142.00 453.00,142.00
             453.00,142.00 443.43,121.00 443.43,121.00
             441.78,117.17 440.74,112.87 435.99,111.99
             431.42,111.15 429.04,114.85 426.63,118.00
             420.57,125.92 417.71,129.95 410.00,136.83
             403.87,142.30 388.34,152.69 381.00,157.19
             373.35,161.88 367.16,163.93 361.97,172.00
             355.33,182.31 355.94,196.22 356.00,208.00
             356.05,219.25 360.27,223.13 364.58,233.00
             364.58,233.00 379.47,265.00 379.47,265.00
             379.47,265.00 387.62,276.00 387.62,276.00
             394.07,284.70 398.16,294.41 400.33,305.00
             401.65,311.39 400.20,315.88 402.14,321.00
             404.53,327.30 409.24,329.19 409.91,339.00
             410.52,347.92 407.43,349.51 406.33,356.00
             405.27,362.23 409.24,370.28 403.77,372.36
             400.86,373.47 396.78,371.02 394.00,370.10
             389.53,368.63 385.24,369.32 381.00,366.91
             375.67,363.88 372.51,357.81 366.00,356.40
             353.90,353.77 346.01,368.55 330.00,361.66
             316.15,355.71 297.06,336.59 284.00,327.44
             271.08,318.39 261.92,318.30 252.00,312.66
             245.91,309.20 237.39,301.59 232.00,299.56
             224.55,296.75 217.54,298.39 210.00,299.00 Z
           M 30.00,214.00
           C 30.00,214.00 30.00,220.00 30.00,220.00
             30.00,220.00 19.00,218.00 19.00,218.00
             19.05,220.37 19.07,222.71 19.80,225.00
             20.36,226.75 21.12,228.28 22.42,229.61
             28.60,235.93 35.67,230.53 38.47,224.00
             40.05,220.32 40.30,216.36 35.94,214.60
             34.30,213.94 31.77,214.02 30.00,214.00 Z
           M 33.00,238.00
           C 33.00,238.00 33.00,245.00 33.00,245.00
             36.90,242.78 37.51,242.26 39.00,238.00
             39.00,238.00 33.00,238.00 33.00,238.00 Z
           M 423.00,1102.00
           C 423.00,1102.00 423.00,1103.00 423.00,1103.00
             423.00,1103.00 424.00,1102.00 424.00,1102.00
             424.00,1102.00 423.00,1102.00 423.00,1102.00 Z
           M 407.00,1103.00
           C 410.08,1105.84 410.90,1105.76 415.00,1106.00
             415.00,1106.00 407.00,1103.00 407.00,1103.00 Z" />
</svg>
