<?xml version="1.0" encoding="UTF-8" standalone="no"?>
<!DOCTYPE svg PUBLIC "-//W3C//DTD SVG 20010904//EN"
              "http://www.w3.org/TR/2001/REC-SVG-20010904/DTD/svg10.dtd">

<svg xmlns="http://www.w3.org/2000/svg"
     width="4.16333in" height="3.70667in"
     viewBox="0 0 1249 1112">
  <path id="Устьянский"
        fill="none" stroke="black" stroke-width="1"
        d="M 647.00,904.00
           C 647.00,904.00 646.00,919.09 646.00,919.09
             642.43,918.53 636.56,917.12 633.39,919.09
             628.60,922.28 629.66,931.15 628.66,936.00
             627.59,941.18 624.75,943.37 620.00,945.00
             620.00,945.00 620.00,951.00 620.00,951.00
             620.00,951.00 610.83,950.00 610.83,950.00
             610.98,951.84 611.02,954.21 610.83,956.00
             608.57,966.20 601.58,964.22 594.00,963.14
             594.00,963.14 586.00,963.14 586.00,963.14
             587.69,966.02 591.03,970.78 591.57,974.00
             592.27,978.19 589.78,981.53 587.86,985.00
             583.69,992.54 582.66,999.88 573.00,1001.00
             573.15,1004.21 574.15,1015.39 575.43,1017.82
             577.11,1021.02 579.78,1021.58 582.90,1026.04
             587.27,1032.31 591.15,1045.40 589.52,1053.00
             588.85,1056.11 588.24,1056.44 587.11,1059.00
             584.27,1065.39 590.53,1072.63 579.00,1072.00
             579.00,1072.00 582.00,1077.00 582.00,1077.00
             582.00,1077.00 576.00,1078.00 576.00,1078.00
             577.14,1082.86 582.09,1096.59 589.00,1093.87
             592.76,1092.39 596.31,1086.22 601.00,1085.21
             603.95,1084.58 609.00,1086.72 612.00,1087.57
             612.00,1087.57 631.00,1092.00 631.00,1092.00
             631.98,1086.82 632.53,1082.17 636.22,1078.09
             640.90,1072.92 646.88,1071.88 650.99,1065.00
             653.65,1060.56 652.53,1057.75 653.57,1054.00
             654.99,1048.84 659.20,1044.67 664.00,1042.53
             669.42,1040.10 674.22,1039.99 680.00,1040.00
             684.34,1040.01 689.26,1041.44 693.00,1039.00
             694.20,1041.64 695.58,1044.07 695.83,1047.00
             696.08,1049.92 694.79,1053.11 696.78,1055.18
             698.69,1057.17 711.37,1058.94 715.00,1060.08
             724.41,1063.07 735.16,1062.22 745.00,1063.17
             758.54,1064.48 765.08,1068.00 781.00,1068.00
             781.00,1068.00 781.00,1071.00 781.00,1071.00
             781.00,1071.00 790.00,1071.00 790.00,1071.00
             790.00,1071.00 792.32,1054.00 792.32,1054.00
             792.32,1054.00 794.54,1045.00 794.54,1045.00
             794.54,1045.00 795.18,1036.00 795.18,1036.00
             795.18,1036.00 796.69,1029.00 796.69,1029.00
             797.86,1022.73 796.99,1015.80 805.00,1015.00
             805.00,1015.00 803.33,1007.00 803.33,1007.00
             803.10,1004.22 804.21,1001.41 803.33,999.14
             802.17,995.96 798.80,995.99 797.34,992.86
             795.11,988.05 801.50,979.76 790.00,979.02
             790.00,979.02 786.28,979.02 786.28,979.02
             786.28,979.02 786.28,969.00 786.28,969.00
             786.21,963.58 783.99,962.32 786.28,955.00
             787.29,951.49 791.57,943.04 789.00,939.73
             787.44,937.72 778.69,936.38 776.00,936.00
             777.69,931.94 779.45,924.20 772.00,925.37
             768.94,925.85 767.11,928.42 764.58,928.85
             760.76,929.13 760.46,926.28 756.00,928.85
             756.00,928.85 741.00,918.00 741.00,918.00
             739.03,919.29 736.20,921.50 734.00,922.10
             730.30,923.10 720.45,920.45 716.00,920.08
             712.46,919.79 706.17,919.88 704.91,915.78
             704.08,914.11 704.87,909.89 704.91,908.00
             704.91,908.00 707.00,892.00 707.00,892.00
             707.00,892.00 679.00,889.21 679.00,889.21
             679.00,889.21 672.00,891.08 672.00,891.08
             655.12,895.63 660.67,896.32 647.00,904.00 Z
           M 511.00,1082.00
           C 511.00,1082.00 511.00,1083.00 511.00,1083.00
             511.00,1083.00 512.00,1082.00 512.00,1082.00
             512.00,1082.00 511.00,1082.00 511.00,1082.00 Z" />
</svg>
