<?xml version="1.0" encoding="UTF-8" standalone="no"?>
<!DOCTYPE svg PUBLIC "-//W3C//DTD SVG 20010904//EN"
              "http://www.w3.org/TR/2001/REC-SVG-20010904/DTD/svg10.dtd">

<svg xmlns="http://www.w3.org/2000/svg"
     width="4.16333in" height="3.70667in"
     viewBox="0 0 1249 1112">
  <path id="Холмогорский"
        fill="none" stroke="black" stroke-width="1"
        d="M 495.00,356.00
           C 494.99,366.72 492.30,385.26 490.20,396.00
             488.52,404.55 486.08,410.06 486.00,419.00
             486.00,419.00 461.00,414.58 461.00,414.58
             461.00,414.58 439.00,409.00 439.00,409.00
             442.26,418.30 444.88,421.14 455.00,422.00
             455.00,422.00 455.00,429.00 455.00,429.00
             455.00,429.00 416.00,424.00 416.00,424.00
             412.43,441.77 410.92,436.75 407.00,447.00
             413.44,451.03 416.85,452.95 415.00,461.00
             421.11,462.62 431.60,463.88 433.57,471.02
             434.77,475.37 432.41,483.49 431.42,488.00
             431.42,488.00 426.85,509.00 426.85,509.00
             426.85,509.00 422.30,525.00 422.30,525.00
             421.08,533.74 426.25,543.40 425.68,551.00
             425.68,551.00 424.08,562.00 424.08,562.00
             424.08,562.00 424.08,573.00 424.08,573.00
             424.08,573.00 418.00,620.00 418.00,620.00
             418.00,620.00 414.00,619.00 414.00,619.00
             414.00,619.00 412.00,624.00 412.00,624.00
             412.00,624.00 409.00,623.00 409.00,623.00
             409.00,623.00 413.00,642.00 413.00,642.00
             413.00,642.00 417.00,640.00 417.00,640.00
             418.38,643.17 419.69,646.30 422.21,648.78
             427.36,653.83 437.05,655.38 444.00,654.91
             444.00,654.91 452.00,654.08 452.00,654.08
             455.50,654.08 463.62,655.62 467.00,656.75
             473.67,658.97 478.20,663.16 480.21,670.00
             481.48,674.29 480.73,677.78 483.85,681.67
             488.36,687.30 492.93,685.09 496.00,694.00
             498.77,689.73 499.57,679.30 500.00,674.00
             500.00,674.00 510.00,674.00 510.00,674.00
             510.00,674.00 512.00,659.00 512.00,659.00
             512.00,659.00 514.00,661.00 514.00,661.00
             514.00,661.00 515.00,661.00 515.00,661.00
             515.00,661.00 517.17,638.02 517.17,638.02
             517.17,638.02 523.00,632.89 523.00,632.89
             523.00,632.89 551.00,632.00 551.00,632.00
             549.74,626.46 543.72,614.22 554.02,613.40
             555.37,613.30 557.61,613.77 559.00,614.00
             559.00,614.00 559.00,608.00 559.00,608.00
             563.64,607.99 571.01,607.85 574.58,604.49
             577.46,601.79 577.67,597.55 578.77,594.00
             580.08,589.78 583.76,582.25 587.18,579.51
             592.66,575.13 603.18,577.98 610.00,578.00
             611.75,565.69 615.83,566.62 618.37,559.00
             618.37,559.00 622.28,532.00 622.28,532.00
             622.28,532.00 624.50,512.00 624.50,512.00
             624.05,506.53 619.31,501.84 616.82,497.00
             613.78,491.08 612.10,483.40 610.00,477.00
             622.96,471.82 637.63,464.94 646.67,454.00
             651.45,448.22 657.11,435.22 660.00,428.00
             660.00,428.00 636.00,424.13 636.00,424.13
             631.64,423.52 623.64,422.42 620.02,420.15
             611.56,414.86 614.32,406.61 606.91,402.97
             606.91,402.97 585.00,397.05 585.00,397.05
             585.00,397.05 565.00,386.55 565.00,386.55
             565.00,386.55 520.00,376.00 520.00,376.00
             522.32,370.70 526.24,358.63 525.78,353.00
             525.53,349.97 524.13,345.84 520.90,344.84
             515.34,343.14 513.04,351.13 508.82,354.30
             504.42,357.60 499.99,356.23 495.00,356.00 Z
           M 633.00,616.00
           C 633.00,616.00 633.00,617.00 633.00,617.00
             633.00,617.00 634.00,616.00 634.00,616.00
             634.00,616.00 633.00,616.00 633.00,616.00 Z
           M 693.00,644.00
           C 693.00,644.00 693.00,645.00 693.00,645.00
             693.00,645.00 694.00,644.00 694.00,644.00
             694.00,644.00 693.00,644.00 693.00,644.00 Z" />
</svg>
