<?xml version="1.0" encoding="UTF-8" standalone="no"?>
<!DOCTYPE svg PUBLIC "-//W3C//DTD SVG 20010904//EN"
              "http://www.w3.org/TR/2001/REC-SVG-20010904/DTD/svg10.dtd">

<svg xmlns="http://www.w3.org/2000/svg"
     width="4.16333in" height="3.70667in"
     viewBox="0 0 1249 1112">
  <path id="Шенскурский"
        fill="none" stroke="black" stroke-width="1"
        d="M 491.00,707.00
           C 491.00,707.00 491.00,708.00 491.00,708.00
             491.00,708.00 492.00,707.00 492.00,707.00
             492.00,707.00 491.00,707.00 491.00,707.00 Z
           M 442.00,784.00
           C 442.00,784.00 449.65,797.00 449.65,797.00
             449.65,797.00 454.54,813.00 454.54,813.00
             457.86,822.11 460.07,821.60 461.00,833.00
             461.00,833.00 454.00,831.00 454.00,831.00
             453.11,835.90 451.37,842.20 452.80,847.00
             455.18,855.04 465.68,863.74 467.28,871.00
             467.97,874.13 466.60,879.73 466.00,883.00
             466.00,883.00 490.00,886.00 490.00,886.00
             490.00,886.00 490.00,901.00 490.00,901.00
             490.02,904.46 489.97,906.64 491.10,910.00
             495.55,923.23 508.24,928.05 521.00,929.71
             521.00,929.71 531.00,930.32 531.00,930.32
             534.41,930.89 538.74,932.70 542.00,934.00
             542.00,934.00 543.00,929.00 543.00,929.00
             543.00,929.00 555.00,934.00 555.00,934.00
             561.51,924.61 562.22,928.30 567.68,922.79
             570.84,919.60 572.41,915.26 578.00,913.89
             584.56,912.28 607.54,920.43 616.00,919.78
             621.35,919.36 626.40,916.26 631.00,913.77
             631.00,913.77 655.00,899.67 655.00,899.67
             659.25,896.85 662.16,894.91 667.00,893.06
             671.33,891.41 676.23,890.77 679.82,887.61
             682.84,884.93 685.57,880.11 685.64,876.00
             685.81,866.43 674.36,851.32 667.00,846.00
             667.00,846.00 669.00,844.00 669.00,844.00
             669.00,844.00 669.00,843.00 669.00,843.00
             666.11,841.40 661.38,839.47 659.09,837.59
             654.30,833.64 647.17,820.06 645.22,814.00
             645.22,814.00 641.30,798.29 641.30,798.29
             639.41,794.88 636.12,796.52 631.01,792.58
             625.12,788.04 623.24,781.55 616.99,776.22
             606.24,767.06 588.79,775.25 581.55,765.93
             576.29,759.17 586.38,751.07 590.00,746.00
             585.49,743.91 577.97,741.15 573.00,741.26
             573.00,741.26 557.00,742.48 557.00,742.48
             553.06,741.68 550.50,737.99 547.00,735.84
             539.99,731.52 518.72,725.53 511.04,729.77
             507.20,731.88 503.58,736.66 500.73,740.00
             495.52,746.10 488.51,754.21 484.45,761.00
             481.49,765.96 477.44,775.03 472.91,778.30
             468.96,781.15 465.45,780.72 461.00,781.17
             461.00,781.17 442.00,784.00 442.00,784.00 Z
           M 575.00,1018.00
           C 575.00,1018.00 575.00,1019.00 575.00,1019.00
             575.00,1019.00 576.00,1018.00 576.00,1018.00
             576.00,1018.00 575.00,1018.00 575.00,1018.00 Z
           M 585.00,1061.00
           C 585.00,1061.00 585.00,1062.00 585.00,1062.00
             585.00,1062.00 586.00,1061.00 586.00,1061.00
             586.00,1061.00 585.00,1061.00 585.00,1061.00 Z
           M 491.00,1072.00
           C 491.00,1072.00 491.00,1073.00 491.00,1073.00
             491.00,1073.00 492.00,1072.00 492.00,1072.00
             492.00,1072.00 491.00,1072.00 491.00,1072.00 Z" />
</svg>
