<svg xmlns="http://www.w3.org/2000/svg"
	 width="1249" height="1112"
	 viewBox="0 0 1249 1112">

	<polyline stroke="red" stroke-width="5px" fill="none" points="402.0, 962.0 409.66, 994.0 404.46, 1002.9 406.1, 1008.0 411.98, 1017.0 412.28, 1023.85 418.36, 1028.96 425.82, 1029.02 429.05, 1032.14 430.1, 1034.0 434.19, 1041.29 433.46, 1047.4 433.46, 1047.4 433.46, 1047.4 433.46, 1047.4 432.0, 1063.0 443.0, 1062.0 454.0, 1061.6 469.0, 1063.51 491.0, 1060.0 490.69, 1062.4 489.99, 1065.66 490.43, 1067.98 492.05, 1076.43 500.78, 1075.11 507.0, 1074.0 510.52, 1087.55 528.08, 1090.94 539.0, 1084.04 544.02, 1080.86 550.89, 1073.32 556.0, 1071.93 557.42, 1071.56 576.0, 1078.0 576.0, 1078.0 576.0, 1078.0 576.0, 1078.0 576.0, 1078.0 576.0, 1078.0 584.27, 1065.39 587.11, 1059.0 589.52, 1053.0 591.15, 1045.4 587.27, 1032.31 577.11, 1021.02 574.15, 1015.39 574.15, 1015.39 574.15, 1015.39 573.15, 1004.21 573.15, 1004.21 573.15, 1004.21 582.66, 999.88 583.69, 992.54 583.69, 992.54 583.69, 992.54 591.57, 974.0 591.03, 970.78 594.0, 963.14 594.0, 963.14 594.0, 963.14 601.58, 964.22 608.57, 966.2 610.83, 950.0 610.83, 950.0 610.83, 950.0 610.83, 950.0 610.83, 950.0 627.59, 941.18 627.59, 941.18 629.66, 931.15 629.66, 931.15 631.0, 913.77 626.4, 916.26 607.54, 920.43 584.56, 912.28 578.0, 913.89 572.41, 915.26 570.84, 919.6 567.68, 922.79 561.51, 924.61 561.51, 924.61 562.22, 928.3 562.22, 928.3 562.22, 928.3 534.41, 930.89 534.41, 930.89 531.0, 930.32 531.0, 930.32 521.0, 929.71 508.24, 928.05 495.55, 923.23 490.0, 901.0 490.0, 901.0 490.0, 901.0 490.0, 901.0 490.0, 886.0 467.97, 874.13 465.68, 863.74 455.73, 872.45 451.52, 875.33 450.62, 880.0 450.62, 880.0 448.96, 901.99 443.8, 913.87 437.45, 917.11 433.34, 924.24 438.21, 941.39 417.48, 937.04, 402.0, 962.0" />
</svg>
