<?xml version="1.0" encoding="UTF-8" standalone="no"?>
<!DOCTYPE svg PUBLIC "-//W3C//DTD SVG 20010904//EN"
              "http://www.w3.org/TR/2001/REC-SVG-20010904/DTD/svg10.dtd">

<svg xmlns="http://www.w3.org/2000/svg"
     width="4.16333in" height="3.70667in"
     viewBox="0 0 1249 1112">
  <path id="Вилегодский"
        fill="none" stroke="black" stroke-width="1"
        d="M 1042.00,944.00
           C 1038.21,946.28 1034.10,948.92 1030.00,950.54
             1026.77,951.81 1021.78,952.63 1019.23,954.70
             1015.23,957.94 1016.80,961.47 1013.99,965.96
             1010.94,970.85 1006.60,971.53 1003.40,978.01
             997.76,989.46 1005.08,995.49 999.57,1001.78
             993.70,1008.49 973.95,1004.39 975.00,1017.00
             983.75,1015.03 993.95,1012.35 1003.00,1013.09
             1006.59,1013.39 1013.35,1015.07 1012.26,1020.02
             1011.72,1022.47 1008.71,1025.23 1007.00,1027.00
             1010.12,1032.37 1013.96,1037.64 1020.00,1039.87
             1025.28,1041.82 1032.65,1040.45 1038.90,1045.56
             1044.91,1050.48 1045.93,1058.74 1046.00,1066.00
             1046.00,1066.00 1082.00,1071.00 1082.00,1071.00
             1082.41,1062.18 1084.25,1061.86 1085.53,1055.00
             1086.75,1048.52 1084.93,1044.72 1089.65,1038.00
             1094.15,1031.59 1099.47,1029.23 1106.00,1025.69
             1106.00,1025.69 1126.00,1015.31 1126.00,1015.31
             1126.00,1015.31 1136.00,1011.88 1136.00,1011.88
             1136.00,1011.88 1144.00,1007.78 1144.00,1007.78
             1146.86,1006.30 1149.80,1004.90 1153.00,1004.33
             1156.32,1003.73 1159.78,1004.40 1162.28,1001.57
             1164.59,998.95 1164.77,994.31 1165.07,991.00
             1165.07,991.00 1167.05,974.00 1167.05,974.00
             1167.35,971.29 1168.68,967.35 1165.70,965.72
             1164.23,964.92 1156.23,963.81 1154.00,963.39
             1154.00,963.39 1118.00,959.91 1118.00,959.91
             1118.00,959.91 1099.00,958.00 1099.00,958.00
             1099.00,958.00 1076.00,956.71 1076.00,956.71
             1076.00,956.71 1042.00,950.00 1042.00,950.00
             1042.00,950.00 1042.00,944.00 1042.00,944.00 Z" />
</svg>
