<?xml version="1.0" encoding="UTF-8" standalone="no"?>
<!DOCTYPE svg PUBLIC "-//W3C//DTD SVG 20010904//EN"
              "http://www.w3.org/TR/2001/REC-SVG-20010904/DTD/svg10.dtd">

<svg xmlns="http://www.w3.org/2000/svg"
     width="4.16333in" height="3.70667in"
     viewBox="0 0 1249 1112">
  <path id="Каргопольский"
        fill="none" stroke="black" stroke-width="1"
        d="M 220.00,835.00
           C 221.34,840.61 222.04,841.92 227.00,845.00
             225.33,846.28 224.15,847.46 222.00,847.96
             217.80,848.95 206.31,843.72 202.00,842.00
             202.00,842.00 202.00,865.00 202.00,865.00
             202.00,865.00 211.00,868.00 211.00,868.00
             211.00,868.00 209.00,873.00 209.00,873.00
             204.04,871.35 193.67,869.36 191.17,864.89
             189.65,862.16 190.00,857.15 190.00,854.14
             190.00,854.14 181.00,854.14 181.00,854.14
             181.00,854.14 173.00,857.07 173.00,857.07
             168.37,857.89 159.87,856.12 156.04,853.35
             153.60,851.59 148.58,845.63 146.00,843.00
             138.57,849.28 136.73,867.72 133.66,877.00
             131.60,883.23 126.38,886.17 123.55,894.00
             118.67,907.48 122.24,915.28 122.10,921.00
             122.10,921.00 120.68,929.00 120.68,929.00
             120.68,929.00 121.21,944.00 121.21,944.00
             121.21,944.00 124.47,954.00 124.47,954.00
             125.34,957.76 124.56,960.41 125.81,964.00
             129.46,974.49 134.54,976.44 133.00,989.00
             140.07,989.07 145.31,991.29 149.16,997.72
             150.54,1000.00 149.78,1001.38 151.02,1004.01
             151.02,1004.01 155.00,1010.00 155.00,1010.00
             146.99,1014.27 149.00,1025.23 149.00,1033.00
             161.91,1036.07 164.89,1045.00 165.00,1057.00
             170.76,1057.13 175.58,1057.75 179.00,1063.04
             181.99,1067.67 181.08,1073.87 187.04,1075.57
             194.51,1077.70 198.24,1072.25 204.00,1069.45
             207.17,1067.91 209.60,1068.03 213.00,1068.00
             211.80,1061.27 210.08,1057.41 211.21,1050.00
             211.90,1045.48 214.25,1042.93 215.37,1039.00
             215.37,1039.00 217.00,1022.00 217.00,1022.00
             223.80,1021.47 221.43,1019.71 226.10,1017.73
             228.87,1016.56 230.52,1017.45 233.41,1014.70
             238.95,1009.44 238.17,1005.94 246.00,1001.06
             252.51,997.00 260.66,997.10 265.00,1004.00
             270.26,1000.32 270.37,998.66 277.00,999.00
             277.00,999.00 278.00,987.00 278.00,987.00
             278.00,987.00 284.00,987.00 284.00,987.00
             284.00,987.00 284.00,981.00 284.00,981.00
             290.53,981.52 294.28,983.52 297.00,976.00
             297.00,976.00 300.00,977.00 300.00,977.00
             300.00,977.00 300.00,972.00 300.00,972.00
             311.92,970.01 308.49,964.07 311.09,958.00
             311.09,958.00 316.00,950.00 316.00,950.00
             311.38,948.61 310.56,947.51 309.00,943.00
             304.43,942.28 299.76,941.14 298.44,935.98
             297.53,932.40 299.74,925.77 300.58,922.00
             302.27,914.39 303.42,906.79 303.91,899.00
             304.70,886.66 299.12,890.58 301.00,876.01
             290.90,878.43 288.49,873.23 283.04,876.01
             276.03,879.62 277.79,887.80 265.00,889.00
             265.00,889.00 266.00,884.00 266.00,884.00
             266.00,884.00 253.00,881.00 253.00,881.00
             253.00,881.00 257.00,875.00 257.00,875.00
             257.00,875.00 251.00,872.00 251.00,872.00
             252.27,868.23 252.86,864.31 257.00,863.00
             255.25,855.49 257.45,854.35 261.00,848.00
             261.00,848.00 244.17,842.01 244.17,842.01
             244.17,842.01 233.99,833.65 233.99,833.65
             233.99,833.65 220.00,835.00 220.00,835.00 Z
           M 302.00,876.00
           C 302.00,876.00 302.00,877.00 302.00,877.00
             302.00,877.00 303.00,876.00 303.00,876.00
             303.00,876.00 302.00,876.00 302.00,876.00 Z" />
</svg>
