<?xml version="1.0" encoding="UTF-8" standalone="no"?>
<!DOCTYPE svg PUBLIC "-//W3C//DTD SVG 20010904//EN"
              "http://www.w3.org/TR/2001/REC-SVG-20010904/DTD/svg10.dtd">

<svg xmlns="http://www.w3.org/2000/svg"
     width="4.16333in" height="3.70667in"
     viewBox="0 0 1249 1112">
  <path id="Коношоский"
        fill="none" stroke="black" stroke-width="1"
        d="M 300.00,977.00
           C 300.00,977.00 284.00,981.00 284.00,981.00
             284.00,981.00 284.00,987.00 284.00,987.00
             284.00,987.00 278.00,987.00 278.00,987.00
             278.00,987.00 277.00,999.00 277.00,999.00
             271.75,999.48 269.61,999.99 266.00,1004.00
             263.99,1002.22 262.48,1000.75 260.00,999.57
             248.33,994.03 240.78,1006.28 233.83,1012.79
             228.83,1017.48 220.22,1019.57 217.93,1022.49
             215.70,1025.36 216.08,1032.88 215.10,1037.00
             212.02,1049.95 210.97,1046.31 211.00,1061.00
             211.00,1063.17 210.89,1065.96 211.58,1068.00
             212.37,1070.29 214.51,1072.94 215.92,1075.00
             217.77,1077.69 218.99,1079.96 222.04,1081.54
             227.90,1084.57 231.60,1080.19 237.00,1080.21
             242.03,1080.22 244.38,1083.60 252.00,1083.96
             264.34,1084.54 267.92,1079.56 272.00,1078.88
             276.09,1077.96 276.06,1080.85 284.00,1078.88
             287.35,1086.71 294.64,1096.47 304.00,1096.64
             304.00,1096.64 316.00,1094.01 316.00,1094.01
             316.00,1094.01 323.00,1094.01 323.00,1094.01
             335.35,1092.50 340.27,1086.92 345.00,1076.00
             349.14,1080.05 357.62,1088.37 364.00,1087.17
             368.94,1086.24 371.82,1080.60 375.90,1082.17
             378.53,1083.18 380.53,1087.73 382.39,1089.96
             385.00,1093.09 388.47,1095.19 392.00,1097.14
             392.00,1097.14 410.00,1105.16 410.00,1105.16
             412.93,1106.16 415.15,1105.80 418.00,1105.16
             420.37,1104.26 422.91,1103.22 424.99,1101.87
             436.23,1094.54 433.72,1080.57 436.13,1074.00
             436.13,1074.00 443.00,1062.00 443.00,1062.00
             443.00,1062.00 432.00,1063.00 432.00,1063.00
             432.00,1063.00 434.00,1054.00 434.00,1054.00
             434.00,1054.00 431.00,1055.00 431.00,1055.00
             433.46,1047.40 434.19,1041.29 430.10,1034.00
             429.05,1032.14 427.71,1030.11 425.82,1029.02
             422.54,1027.15 418.36,1028.96 415.31,1026.40
             412.28,1023.85 413.67,1020.45 411.98,1017.00
             410.53,1014.02 407.22,1011.48 406.10,1008.00
             404.46,1002.90 408.62,999.62 409.66,994.00
             410.99,986.86 407.54,973.74 404.79,967.00
             403.55,963.97 401.45,959.54 398.70,957.64
             394.02,954.40 382.48,960.52 376.58,958.78
             373.67,957.93 371.16,955.09 368.00,955.00
             365.05,954.91 362.91,957.43 358.00,956.65
             353.85,955.98 350.66,953.06 345.00,951.94
             339.35,950.81 337.29,953.03 333.00,952.70
             329.39,952.42 326.40,950.12 323.00,949.62
             311.81,947.97 311.01,961.25 308.00,965.96
             304.47,971.46 301.64,969.49 300.00,977.00 Z
           M 150.00,1003.00
           C 150.00,1003.00 150.00,1004.00 150.00,1004.00
             150.00,1004.00 151.00,1003.00 151.00,1003.00
             151.00,1003.00 150.00,1003.00 150.00,1003.00 Z
           M 152.00,1011.00
           C 152.00,1011.00 152.00,1012.00 152.00,1012.00
             152.00,1012.00 153.00,1011.00 153.00,1011.00
             153.00,1011.00 152.00,1011.00 152.00,1011.00 Z" />
</svg>
