<?xml version="1.0" encoding="UTF-8" standalone="no"?>
<!DOCTYPE svg PUBLIC "-//W3C//DTD SVG 20010904//EN"
              "http://www.w3.org/TR/2001/REC-SVG-20010904/DTD/svg10.dtd">

<svg xmlns="http://www.w3.org/2000/svg"
     width="4.16333in" height="3.70667in"
     viewBox="0 0 1249 1112">
  <path id="Котласский"
        fill="none" stroke="black" stroke-width="1"
        d="M 977.00,905.00
           C 968.53,902.94 964.28,902.69 960.39,911.00
             959.26,913.42 957.78,916.28 957.68,919.00
             957.51,923.49 960.48,925.18 961.01,930.00
             961.20,931.78 960.99,935.31 960.42,937.00
             959.63,939.31 953.70,949.96 951.87,951.26
             949.90,952.66 948.27,952.74 946.00,953.00
             945.81,955.13 945.66,956.97 944.85,959.00
             940.79,969.18 927.45,964.39 919.00,964.00
             919.00,964.00 918.00,978.00 918.00,978.00
             911.65,978.11 910.92,979.67 908.00,970.00
             908.00,970.00 904.00,971.00 904.00,971.00
             900.50,959.25 887.81,960.51 883.04,957.98
             880.76,956.77 879.53,954.95 878.00,953.00
             878.00,953.00 873.00,955.00 873.00,955.00
             873.00,955.00 876.48,965.57 876.48,965.57
             876.48,965.57 874.00,973.00 874.00,973.00
             874.00,973.00 854.04,971.74 854.04,971.74
             854.04,971.74 847.51,978.40 847.51,978.40
             847.51,978.40 837.14,981.31 837.14,981.31
             837.14,981.31 831.57,988.26 831.57,988.26
             831.57,988.26 822.00,990.00 822.00,990.00
             822.00,990.00 821.00,997.00 821.00,997.00
             821.00,997.00 802.00,997.00 802.00,997.00
             803.92,1002.84 802.49,1011.09 805.73,1014.18
             807.93,1016.26 814.99,1016.90 818.00,1016.99
             823.29,1017.14 835.68,1018.51 839.77,1021.72
             847.38,1027.70 837.90,1040.35 842.17,1046.57
             844.21,1049.53 854.33,1049.89 858.00,1050.42
             858.00,1050.42 880.00,1052.53 880.00,1052.53
             886.01,1052.99 903.84,1044.86 910.00,1042.00
             910.69,1054.28 916.50,1052.75 926.00,1054.46
             926.00,1054.46 938.00,1057.00 938.00,1057.00
             937.08,1059.55 935.97,1062.25 936.83,1065.00
             938.56,1070.56 951.51,1076.78 956.72,1073.79
             960.89,1071.39 959.48,1064.95 960.57,1061.00
             961.94,1055.99 965.78,1053.13 967.70,1049.00
             969.32,1045.52 969.91,1038.89 970.00,1035.00
             985.63,1035.72 996.32,1042.39 1011.00,1032.00
             1011.00,1032.00 1006.00,1027.00 1006.00,1027.00
             1006.00,1027.00 1009.00,1027.00 1009.00,1027.00
             1010.47,1025.01 1014.38,1021.17 1014.37,1018.93
             1014.36,1015.04 1009.27,1012.81 1006.00,1012.61
             1006.00,1012.61 995.00,1013.83 995.00,1013.83
             985.42,1014.75 985.19,1012.54 975.00,1017.00
             975.00,1017.00 973.00,1013.00 973.00,1013.00
             980.56,1010.75 979.72,1008.17 985.01,1006.26
             991.28,1004.01 999.15,1008.57 1002.58,999.98
             1004.23,995.87 1001.05,993.28 1000.43,990.00
             999.98,987.57 1002.72,978.47 1003.85,976.06
             1006.79,969.78 1014.29,972.57 1016.03,964.00
             1017.40,957.19 1009.87,951.83 1011.90,947.21
             1013.12,944.44 1016.04,945.22 1019.01,943.67
             1023.68,941.26 1025.73,937.88 1027.00,933.00
             1027.00,933.00 1016.00,932.00 1016.00,932.00
             1016.00,932.00 1017.00,916.00 1017.00,916.00
             1017.00,916.00 1014.00,916.00 1014.00,916.00
             1014.00,912.03 1014.68,903.55 1012.15,900.54
             1011.13,899.33 1009.36,898.54 1007.98,897.80
             999.96,893.52 1000.20,895.51 992.00,895.97
             988.22,896.17 983.38,896.22 980.27,898.72
             978.07,900.50 977.67,902.43 977.00,905.00 Z
           M 797.00,983.00
           C 797.00,983.00 797.00,984.00 797.00,984.00
             797.00,984.00 798.00,983.00 798.00,983.00
             798.00,983.00 797.00,983.00 797.00,983.00 Z" />
</svg>
