<?xml version="1.0" encoding="UTF-8" standalone="no"?>
<!DOCTYPE svg PUBLIC "-//W3C//DTD SVG 20010904//EN"
              "http://www.w3.org/TR/2001/REC-SVG-20010904/DTD/svg10.dtd">

<svg xmlns="http://www.w3.org/2000/svg"
     width="4.16333in" height="3.70667in"
     viewBox="0 0 1249 1112">
  <path id="Красноборский"
        fill="none" stroke="black" stroke-width="1"
        d="M 1097.00,696.00
           C 1097.00,696.00 1097.00,697.00 1097.00,697.00
             1097.00,697.00 1098.00,696.00 1098.00,696.00
             1098.00,696.00 1097.00,696.00 1097.00,696.00 Z
           M 1166.00,705.00
           C 1166.00,705.00 1166.00,706.00 1166.00,706.00
             1166.00,706.00 1167.00,705.00 1167.00,705.00
             1167.00,705.00 1166.00,705.00 1166.00,705.00 Z
           M 966.00,800.00
           C 966.00,804.78 966.92,817.25 964.26,820.77
             961.53,824.39 957.03,823.99 953.00,824.04
             953.00,824.04 939.00,824.04 939.00,824.04
             939.00,824.04 927.00,825.00 927.00,825.00
             927.00,825.00 910.00,825.00 910.00,825.00
             910.00,825.00 891.02,826.43 891.02,826.43
             889.23,826.93 887.87,827.73 886.74,829.23
             884.71,831.91 885.01,835.81 885.04,839.00
             885.04,839.00 885.04,854.00 885.04,854.00
             885.04,854.00 886.00,866.00 886.00,866.00
             886.01,871.49 885.67,874.54 887.00,880.00
             887.00,880.00 853.00,881.00 853.00,881.00
             853.00,881.00 838.00,882.08 838.00,882.08
             838.00,882.08 827.00,882.08 827.00,882.08
             814.69,883.49 820.77,885.77 807.00,881.00
             807.00,881.00 807.00,885.00 807.00,885.00
             803.55,884.30 799.97,883.65 797.09,881.49
             794.29,879.39 792.55,876.00 789.02,875.36
             781.42,873.98 780.66,890.03 780.00,895.00
             775.60,893.89 768.31,892.00 764.22,894.45
             760.78,896.52 760.36,900.40 759.75,904.00
             759.75,904.00 756.00,929.00 756.00,929.00
             770.07,928.96 777.58,921.10 776.00,936.00
             780.23,936.86 785.78,937.80 787.96,942.05
             789.96,945.95 787.12,950.22 786.16,955.00
             786.16,955.00 786.16,979.00 786.16,979.00
             790.44,979.42 794.59,980.34 796.40,985.02
             797.49,987.83 796.38,991.55 799.43,994.49
             802.76,997.70 810.56,997.07 815.00,997.00
             823.64,996.85 820.02,993.85 826.05,990.12
             826.05,990.12 832.00,987.13 832.00,987.13
             832.00,987.13 840.00,981.41 840.00,981.41
             840.00,981.41 847.00,978.05 847.00,978.05
             849.91,976.37 852.88,973.75 856.00,972.70
             862.53,970.51 870.05,975.54 874.26,970.57
             877.60,966.64 874.57,959.19 873.00,955.00
             879.77,955.07 879.31,956.68 885.00,958.88
             888.86,960.38 892.21,960.62 896.00,962.99
             901.92,966.70 901.29,970.56 908.00,970.00
             909.84,976.07 911.77,977.33 918.00,978.00
             918.00,978.00 919.00,964.18 919.00,964.18
             924.43,964.44 932.79,966.00 938.00,964.18
             944.66,962.23 944.53,957.25 946.84,954.41
             946.84,954.41 953.82,948.87 953.82,948.87
             957.55,945.12 959.63,940.16 960.43,935.00
             962.34,924.76 955.69,922.84 960.43,913.00
             962.30,908.81 965.12,905.13 970.00,904.43
             972.33,904.10 974.52,904.96 976.72,903.89
             979.05,902.76 980.79,899.59 985.00,897.57
             992.96,893.76 1002.31,895.95 1010.00,899.00
             1010.00,899.00 1010.00,871.00 1010.00,871.00
             1010.01,867.61 1009.81,864.13 1011.45,861.04
             1014.24,855.80 1018.66,855.13 1024.00,855.00
             1024.91,844.97 1029.12,841.48 1039.00,841.00
             1039.57,828.66 1042.59,828.92 1044.76,820.00
             1046.46,813.03 1046.00,806.12 1046.00,799.00
             1046.00,799.00 1005.00,799.00 1005.00,799.00
             1005.00,805.49 1005.94,816.60 1002.28,821.96
             996.03,831.09 983.12,829.13 979.15,819.00
             977.44,814.64 978.00,804.10 978.00,799.00
             978.00,799.00 966.00,800.00 966.00,800.00 Z
           M 1173.00,924.00
           C 1173.00,924.00 1173.00,925.00 1173.00,925.00
             1173.00,925.00 1174.00,924.00 1174.00,924.00
             1174.00,924.00 1173.00,924.00 1173.00,924.00 Z
           M 1162.00,1001.00
           C 1162.00,1001.00 1160.00,1003.00 1160.00,1003.00
             1160.00,1003.00 1160.00,1004.00 1160.00,1004.00
             1160.00,1004.00 1162.00,1001.00 1162.00,1001.00 Z
           M 805.00,1014.00
           C 805.00,1014.00 805.00,1015.00 805.00,1015.00
             805.00,1015.00 806.00,1014.00 806.00,1014.00
             806.00,1014.00 805.00,1014.00 805.00,1014.00 Z
           M 842.00,1047.00
           C 842.00,1047.00 842.00,1048.00 842.00,1048.00
             842.00,1048.00 843.00,1047.00 843.00,1047.00
             843.00,1047.00 842.00,1047.00 842.00,1047.00 Z
           M 937.00,1066.00
           C 937.00,1066.00 937.00,1067.00 937.00,1067.00
             937.00,1067.00 938.00,1066.00 938.00,1066.00
             938.00,1066.00 937.00,1066.00 937.00,1066.00 Z
           M 957.00,1073.00
           C 957.00,1073.00 957.00,1074.00 957.00,1074.00
             957.00,1074.00 958.00,1073.00 958.00,1073.00
             958.00,1073.00 957.00,1073.00 957.00,1073.00 Z" />
</svg>
