<?xml version="1.0" encoding="UTF-8" standalone="no"?>
<!DOCTYPE svg PUBLIC "-//W3C//DTD SVG 20010904//EN"
              "http://www.w3.org/TR/2001/REC-SVG-20010904/DTD/svg10.dtd">

<svg xmlns="http://www.w3.org/2000/svg"
     width="4.16333in" height="3.70667in"
     viewBox="0 0 1249 1112">
  <path id="Ленский"
        fill="none" stroke="black" stroke-width="1"
        d="M 1061.85,721.05
           C 1061.85,721.05 1061.85,732.00 1061.85,732.00
             1060.73,738.78 1056.89,750.61 1057.13,757.00
             1057.30,761.41 1059.08,764.08 1060.54,768.00
             1062.26,772.63 1063.13,780.84 1063.92,786.00
             1064.38,789.03 1064.98,792.07 1063.13,794.79
             1060.57,798.57 1056.13,798.94 1052.00,799.00
             1052.00,799.00 1046.00,799.00 1046.00,799.00
             1047.43,809.86 1046.98,805.09 1045.32,815.00
             1045.32,815.00 1044.57,821.00 1044.57,821.00
             1043.66,824.36 1041.68,825.94 1040.57,829.00
             1039.55,831.81 1039.07,837.91 1039.00,841.00
             1026.25,841.12 1024.01,842.60 1024.00,855.00
             1020.65,855.00 1015.07,854.49 1012.43,856.74
             1009.01,859.64 1010.00,868.71 1009.98,873.00
             1009.98,873.00 1009.98,889.00 1009.98,889.00
             1009.98,889.00 1009.38,896.83 1009.38,896.83
             1009.85,899.50 1011.93,900.84 1013.11,904.01
             1014.29,907.16 1014.00,912.54 1014.00,916.00
             1014.00,916.00 1017.00,916.00 1017.00,916.00
             1017.00,916.00 1016.00,932.00 1016.00,932.00
             1016.00,932.00 1027.00,933.00 1027.00,933.00
             1024.99,937.04 1023.83,939.59 1019.98,942.35
             1016.61,944.77 1013.73,944.74 1012.61,947.30
             1011.30,950.32 1014.11,955.84 1015.00,959.00
             1015.00,959.00 1022.04,953.67 1022.04,953.67
             1022.04,953.67 1042.00,944.00 1042.00,944.00
             1042.00,944.00 1042.00,950.00 1042.00,950.00
             1042.00,950.00 1076.00,956.88 1076.00,956.88
             1076.00,956.88 1085.00,956.88 1085.00,956.88
             1085.00,956.88 1100.00,958.09 1100.00,958.09
             1100.00,958.09 1126.00,960.83 1126.00,960.83
             1139.19,962.11 1155.82,962.32 1168.00,967.00
             1168.00,967.00 1172.54,944.00 1172.54,944.00
             1172.54,944.00 1173.05,935.00 1173.05,935.00
             1173.27,932.30 1174.73,926.90 1173.05,924.74
             1171.51,922.85 1165.43,922.33 1163.00,921.92
             1163.00,921.92 1150.00,919.59 1150.00,919.59
             1141.61,918.24 1133.15,918.06 1133.08,907.00
             1133.08,907.00 1137.72,873.00 1137.72,873.00
             1139.03,863.04 1139.86,845.79 1143.09,837.00
             1146.71,827.15 1154.87,821.05 1156.44,816.00
             1156.44,816.00 1160.10,788.00 1160.10,788.00
             1160.10,788.00 1160.10,779.00 1160.10,779.00
             1160.10,779.00 1162.83,764.00 1162.83,764.00
             1162.83,764.00 1164.27,745.00 1164.27,745.00
             1164.27,745.00 1168.00,715.00 1168.00,715.00
             1168.03,712.27 1168.43,707.78 1166.40,705.72
             1163.62,702.89 1156.74,703.18 1153.00,702.71
             1153.00,702.71 1118.00,697.58 1118.00,697.58
             1113.71,696.91 1101.71,694.07 1098.28,696.18
             1092.22,699.91 1097.09,716.44 1088.89,721.05
             1085.88,722.64 1082.20,721.47 1079.00,721.05
             1079.00,721.05 1061.85,721.05 1061.85,721.05 Z" />
</svg>
