<?xml version="1.0" encoding="UTF-8" standalone="no"?>
<!DOCTYPE svg PUBLIC "-//W3C//DTD SVG 20010904//EN"
              "http://www.w3.org/TR/2001/REC-SVG-20010904/DTD/svg10.dtd">

<svg xmlns="http://www.w3.org/2000/svg"
     width="4.16333in" height="3.70667in"
     viewBox="0 0 1249 1112">
  <path id="Лешуконский"
        fill="none" stroke="black" stroke-width="1"
        d="M 585.00,22.00
           C 585.00,22.00 585.00,23.00 585.00,23.00
             585.00,23.00 586.00,22.00 586.00,22.00
             586.00,22.00 585.00,22.00 585.00,22.00 Z
           M 1009.00,80.00
           C 1009.00,80.00 1009.00,81.00 1009.00,81.00
             1009.00,81.00 1010.00,80.00 1010.00,80.00
             1010.00,80.00 1009.00,80.00 1009.00,80.00 Z
           M 877.00,104.00
           C 877.00,104.00 877.00,105.00 877.00,105.00
             877.00,105.00 878.00,104.00 878.00,104.00
             878.00,104.00 877.00,104.00 877.00,104.00 Z
           M 759.00,398.00
           C 759.00,398.00 791.00,402.95 791.00,402.95
             795.63,403.47 804.23,403.92 807.79,406.70
             810.83,409.08 812.41,413.46 813.66,417.00
             815.48,422.22 819.23,432.09 820.00,437.00
             833.20,436.88 833.99,431.87 842.00,431.22
             842.00,431.22 879.00,433.70 879.00,433.70
             892.28,431.79 895.52,424.42 906.00,422.02
             906.00,422.02 942.00,416.57 942.00,416.57
             951.23,415.20 958.47,413.01 968.00,413.00
             968.00,413.00 1006.00,413.00 1006.00,413.00
             1011.71,412.99 1023.46,410.48 1027.77,413.74
             1031.54,416.58 1030.61,421.00 1031.79,425.00
             1033.92,432.26 1038.89,434.19 1046.00,433.98
             1060.54,433.53 1052.34,415.57 1060.39,408.52
             1065.03,404.46 1081.90,409.85 1088.00,411.00
             1088.00,411.00 1090.85,396.00 1090.85,396.00
             1091.31,392.25 1091.35,388.15 1094.30,385.31
             1097.70,382.04 1101.96,383.63 1106.00,384.39
             1106.00,384.39 1135.00,389.00 1135.00,389.00
             1135.12,383.38 1136.47,368.24 1140.42,364.43
             1142.65,362.27 1145.08,362.10 1148.00,362.02
             1148.00,362.02 1165.00,363.00 1165.00,363.00
             1165.00,363.00 1206.00,366.00 1206.00,366.00
             1206.00,366.00 1210.00,316.00 1210.00,316.00
             1205.51,315.40 1199.98,314.75 1196.00,312.59
             1188.12,308.30 1176.91,290.85 1171.29,283.00
             1171.29,283.00 1154.60,261.00 1154.60,261.00
             1154.60,261.00 1148.31,251.00 1148.31,251.00
             1145.23,246.20 1143.19,243.37 1140.87,238.00
             1140.05,236.11 1138.93,232.17 1137.30,231.01
             1135.11,229.44 1129.46,231.06 1127.00,231.74
             1127.00,231.74 1105.00,239.78 1105.00,239.78
             1102.11,240.81 1098.15,242.37 1095.21,240.79
             1091.69,238.89 1091.14,234.56 1091.01,231.00
             1091.01,231.00 1089.00,206.00 1089.00,206.00
             1089.00,206.00 1033.00,209.00 1033.00,209.00
             1033.00,209.00 995.00,212.08 995.00,212.08
             995.00,212.08 923.00,227.83 923.00,227.83
             923.00,227.83 902.00,227.00 902.00,227.00
             902.00,227.00 881.00,227.00 881.00,227.00
             881.00,227.00 869.00,226.04 869.00,226.04
             869.00,226.04 853.00,226.04 853.00,226.04
             853.00,226.04 825.00,224.00 825.00,224.00
             813.28,224.14 801.59,233.32 794.32,242.00
             794.32,242.00 785.68,253.48 785.68,253.48
             780.95,257.28 775.56,252.79 771.00,250.87
             765.43,248.53 752.12,245.75 746.00,245.17
             742.53,244.84 738.12,244.72 735.51,247.43
             732.70,250.35 733.01,255.24 733.00,259.00
             733.00,259.00 733.00,284.00 733.00,284.00
             733.04,287.52 733.59,293.77 735.31,296.82
             736.76,299.38 740.68,301.93 743.00,304.09
             746.84,307.67 757.75,320.33 759.30,325.00
             760.90,329.81 757.42,345.53 754.92,350.00
             752.85,353.69 748.33,357.49 748.44,362.00
             748.62,369.55 758.17,367.60 761.81,375.02
             764.05,379.58 759.77,392.51 759.00,398.00 Z" />
</svg>
