<?xml version="1.0" encoding="UTF-8" standalone="no"?>
<!DOCTYPE svg PUBLIC "-//W3C//DTD SVG 20010904//EN"
              "http://www.w3.org/TR/2001/REC-SVG-20010904/DTD/svg10.dtd">

<svg xmlns="http://www.w3.org/2000/svg"
     width="4.16333in" height="3.70667in"
     viewBox="0 0 1249 1112">
  <path id="Няндомский"
        fill="none" stroke="black" stroke-width="1"
        d="M 337.00,754.01
           C 338.89,764.55 337.69,768.43 326.00,769.00
             330.26,776.05 332.73,773.05 337.90,776.72
             340.40,778.50 342.06,781.39 343.57,784.00
             350.65,796.24 347.30,801.40 343.00,814.00
             341.65,817.94 339.76,823.73 335.90,825.82
             332.24,827.80 327.77,825.85 324.00,825.00
             324.26,833.30 329.44,839.51 321.61,847.77
             316.37,853.31 310.39,848.67 307.22,858.02
             307.22,858.02 304.64,868.00 304.64,868.00
             304.64,868.00 301.27,876.00 301.27,876.00
             301.27,876.00 301.27,879.00 301.27,879.00
             300.43,887.78 303.02,888.54 303.82,895.00
             304.34,899.26 303.38,904.68 302.85,909.00
             301.90,916.59 295.34,933.75 300.65,939.58
             302.78,941.92 305.44,942.15 307.74,943.83
             310.14,945.58 310.89,947.85 314.05,949.31
             317.17,950.75 319.79,949.86 323.00,950.20
             332.49,951.17 326.31,952.84 340.00,952.09
             348.97,951.60 352.00,955.87 358.00,956.63
             362.26,957.17 364.59,955.24 368.00,955.57
             371.02,955.86 373.51,957.88 377.00,958.61
             387.20,960.76 393.37,951.91 402.00,962.00
             405.74,955.61 406.00,944.33 406.00,937.00
             417.48,937.04 415.56,939.17 422.00,939.80
             438.21,941.39 433.34,924.24 437.45,917.11
             440.21,912.31 443.80,913.87 446.57,911.41
             449.79,908.55 448.96,901.99 449.00,898.00
             449.00,898.00 450.62,880.00 450.62,880.00
             451.03,877.88 451.52,875.33 453.43,874.02
             455.73,872.45 465.77,873.00 469.00,873.00
             467.29,862.20 452.85,854.38 452.00,843.00
             445.69,845.65 446.23,844.76 440.00,843.51
             433.48,842.21 422.39,844.67 423.05,831.00
             423.13,829.28 423.31,827.66 424.17,826.13
             426.07,822.76 429.45,822.39 431.53,817.98
             433.55,813.86 435.16,802.10 431.53,798.56
             428.95,796.11 424.31,796.07 421.00,796.00
             421.00,796.00 421.00,784.00 421.00,784.00
             407.45,782.77 409.25,775.97 406.84,771.00
             406.84,771.00 403.06,765.00 403.06,765.00
             401.42,762.13 400.79,759.18 397.79,757.31
             395.76,756.05 392.47,755.76 390.00,754.79
             384.93,752.79 380.95,749.19 375.00,750.57
             367.67,752.27 366.23,757.58 353.02,758.36
             347.42,758.69 348.40,755.99 344.79,754.01
             342.20,752.61 339.66,753.36 337.00,754.01 Z
           M 430.00,823.00
           C 430.00,823.00 430.00,824.00 430.00,824.00
             430.00,824.00 431.00,823.00 431.00,823.00
             431.00,823.00 430.00,823.00 430.00,823.00 Z
           M 228.00,833.00
           C 228.00,833.00 233.00,834.00 233.00,834.00
             233.00,834.00 228.00,833.00 228.00,833.00 Z
           M 235.00,834.00
           C 235.00,834.00 239.00,837.00 239.00,837.00
             239.00,837.00 235.00,834.00 235.00,834.00 Z
           M 143.00,845.00
           C 143.00,845.00 143.00,846.00 143.00,846.00
             143.00,846.00 144.00,845.00 144.00,845.00
             144.00,845.00 143.00,845.00 143.00,845.00 Z
           M 283.00,875.00
           C 283.00,875.00 283.00,876.00 283.00,876.00
             283.00,876.00 284.00,875.00 284.00,875.00
             284.00,875.00 283.00,875.00 283.00,875.00 Z
           M 217.00,1022.00
           C 217.00,1022.00 217.00,1023.00 217.00,1023.00
             217.00,1023.00 218.00,1022.00 218.00,1022.00
             218.00,1022.00 217.00,1022.00 217.00,1022.00 Z
           M 184.00,1074.00
           C 184.00,1074.00 184.00,1075.00 184.00,1075.00
             184.00,1075.00 185.00,1074.00 185.00,1074.00
             185.00,1074.00 184.00,1074.00 184.00,1074.00 Z
           M 280.00,1079.00
           C 280.00,1079.00 280.00,1080.00 280.00,1080.00
             280.00,1080.00 281.00,1079.00 281.00,1079.00
             281.00,1079.00 280.00,1079.00 280.00,1079.00 Z
           M 227.00,1082.00
           C 227.00,1082.00 227.00,1083.00 227.00,1083.00
             227.00,1083.00 228.00,1082.00 228.00,1082.00
             228.00,1082.00 227.00,1082.00 227.00,1082.00 Z
           M 286.00,1084.00
           C 286.00,1084.00 286.00,1085.00 286.00,1085.00
             286.00,1085.00 287.00,1084.00 287.00,1084.00
             287.00,1084.00 286.00,1084.00 286.00,1084.00 Z
           M 360.00,1087.00
           C 360.00,1087.00 366.00,1088.00 366.00,1088.00
             366.00,1088.00 360.00,1087.00 360.00,1087.00 Z
           M 301.00,1096.00
           C 301.00,1096.00 301.00,1097.00 301.00,1097.00
             301.00,1097.00 302.00,1096.00 302.00,1096.00
             302.00,1096.00 301.00,1096.00 301.00,1096.00 Z" />
</svg>
